<svg width="368" height="195" viewBox="0 0 368 195" fill="none" xmlns="http://www.w3.org/2000/svg">
<g clip-path="url(#clip0_19_2482)">
<path fill-rule="evenodd" clip-rule="evenodd" d="M357.652 16.9893C355.323 16.7429 351.842 17.1383 350.687 17.7805C350.055 18.1314 349.284 18.3264 348.973 18.2139C348.306 17.9727 344.381 18.8563 339.218 20.4097C337.184 21.0215 334.84 21.5571 334.009 21.5994C333.178 21.6417 331.519 22.0343 330.323 22.4716C329.126 22.909 327.907 23.1796 327.613 23.0734C327.319 22.967 327.041 22.2318 326.995 21.44C326.949 20.6482 326.039 18.1223 324.971 15.8275C322.925 11.4278 320.495 8.37222 316.209 4.81103C314.042 3.01062 311.922 2.14742 307.715 1.35202C307.042 1.22477 305.421 0.842712 304.114 0.503257C302.806 0.163669 300.687 -0.0172336 299.404 0.10181C298.122 0.220717 296.914 0.260889 296.72 0.190907C296.106 -0.0311042 291.812 2.0942 289.256 3.88483C286.985 5.47611 283.376 7.07482 282.635 6.81683C282.464 6.75695 281.306 6.82018 280.061 6.95737C278.817 7.09457 277.365 7.05671 276.834 6.87387C276.303 6.69102 275.226 6.69571 274.441 6.88435C273.656 7.07299 272.753 7.02762 272.434 6.78359C272.115 6.5398 271.323 6.46579 270.675 6.61922C269.897 6.80337 268.393 6.55207 266.254 5.8799C261.893 4.50878 258.946 4.08867 257.628 4.64956C257.027 4.90486 256.055 5.06522 255.467 5.00546C254.025 4.85912 251.699 5.88516 250.064 7.38866C249.324 8.06847 248.21 8.96302 247.588 9.37599C245.912 10.49 244.165 14.7356 244.316 17.3341C244.439 19.4636 245.627 21.9092 246.981 22.8207C247.813 23.3816 247.803 23.3933 246.315 23.579C243.652 23.911 240.143 25.4341 237.815 27.2693C233.58 30.6079 231.794 32.9925 229.74 38.0547C228.86 40.2214 227.908 42.2538 227.623 42.5716C227.33 42.8967 227.226 43.4842 227.381 43.917C227.533 44.3396 227.516 45.4538 227.343 46.3925C227.17 47.3311 227.047 48.4236 227.069 48.8198C227.1 49.3819 226.8 49.4904 225.705 49.3117C224.261 49.0764 223.655 49.3199 207.469 56.6259C201.952 59.116 200.713 59.8442 199.837 61.1096C199.261 61.9406 198.111 63.1902 197.281 63.887C196.45 64.5837 195.63 65.5437 195.457 66.0201C195.285 66.4962 194.65 67.1363 194.045 67.4427C193.441 67.7482 192.318 68.9166 191.55 70.0389C190.781 71.1607 189.295 72.8427 188.248 73.7765C187.201 74.7103 185.434 76.9026 184.322 78.6482C183.21 80.3938 181.95 82.0856 181.521 82.4079C180.81 82.9439 178.965 85.3435 177.418 87.7471C176.877 88.5871 176.622 88.6389 175.374 88.1637C172.749 87.165 170.544 86.7795 169.617 87.1585C169.112 87.3649 168.173 87.3441 167.532 87.112C166.89 86.8802 165.838 86.8607 165.193 87.0691C164.547 87.2772 161.857 87.6007 159.214 87.7888C156.571 87.9768 154.268 88.242 154.096 88.3778C153.923 88.5145 151.297 88.9118 148.259 89.261C145.222 89.6107 142.253 90.1047 141.662 90.3588C141.071 90.613 140.398 90.7521 140.165 90.6677C139.932 90.5836 138.282 91.0116 136.498 91.6198C131.586 93.2932 129.19 93.9427 128.129 93.8876C127.601 93.8603 125.978 94.3759 124.523 95.0335C123.068 95.6911 121.118 96.3239 120.19 96.4401C119.262 96.556 117.673 97.1475 116.658 97.7542C115.645 98.3604 114.57 98.7683 114.27 98.6598C113.97 98.5517 112.937 98.8128 111.975 99.2403C108.785 100.658 108.151 100.786 106.786 100.293C105.567 99.8522 105.445 99.8914 105.561 100.689C105.744 101.947 105.645 102.05 104.621 101.679C104.12 101.498 102.806 101.484 101.701 101.648C100.596 101.811 98.3136 101.703 96.6292 101.407C94.9448 101.111 93.1424 100.975 92.6241 101.104C90.9189 101.531 89.5376 100.713 89.2896 99.1298C89.1675 98.3453 88.4209 95.7809 87.631 93.4323C86.8415 91.0829 86.0842 88.0474 85.9491 86.6861C85.8139 85.3247 85.5549 83.8732 85.374 83.4596C85.1926 83.0467 85.0174 82.1794 84.9843 81.532C84.9517 80.885 84.1675 78.9281 83.2423 77.1841C82.3168 75.4397 81.1136 72.9508 80.5683 71.6531C79.4194 68.9198 79.7363 69.2221 71.9499 63.4297C70.4988 62.3498 63.5235 59.9784 62.4563 60.2016C62.1291 60.2697 61.2943 60.0959 60.6008 59.8152C59.3064 59.2918 54.1181 59.743 52.1482 60.5508C51.5845 60.7821 50.6599 61.0313 50.0938 61.1043C48.7953 61.2728 45.1125 64.9758 44.0367 67.195C43.5939 68.1088 43.0421 69.0806 42.8101 69.3547C42.5786 69.6293 41.7433 71.4198 40.9542 73.3339C39.8144 76.0981 39.52 77.2857 39.5224 79.1072C39.5241 80.3681 39.3112 82.3565 39.0496 83.5257C38.5502 85.7584 38.9304 89.975 39.8263 92.1379C40.1167 92.8396 40.3324 93.8166 40.3054 94.3098C40.2177 95.9025 45.0218 105.391 46.966 107.466C47.521 108.058 48.0283 108.909 48.0937 109.357C48.1586 109.806 49.5991 111.915 51.2946 114.044C52.9904 116.173 55.3021 119.099 56.4323 120.547C57.5624 121.995 58.7121 123.261 58.987 123.361C59.3808 123.503 59.3203 123.711 58.7019 124.342C58.2702 124.782 57.7723 125.09 57.5955 125.027C57.4186 124.963 56.4151 125.257 55.365 125.681C54.3149 126.105 53.0537 126.433 52.5627 126.411C52.0718 126.388 51.3236 126.68 50.9 127.06C50.4765 127.44 48.8587 128.044 47.3046 128.403C45.5663 128.805 43.9476 129.513 43.0981 130.245C42.3384 130.899 41.5473 131.373 41.3398 131.298C41.1323 131.223 40.5992 131.31 40.155 131.492C39.7108 131.673 38.1734 132.294 36.7386 132.87C33.427 134.202 28.0786 137.611 27.1625 138.974C26.7766 139.549 25.9485 140.361 25.3227 140.779C23.3643 142.086 20.5345 147.509 20.3201 150.367C20.2495 151.303 20.0892 152.423 19.9635 152.855C19.5253 154.359 20.8693 158.138 22.4327 159.799C23.2587 160.677 24.0604 161.926 24.2145 162.575C24.3685 163.224 24.8225 164.006 25.2237 164.314C25.6247 164.621 26.5947 165.869 27.3789 167.088C28.1637 168.306 29.1981 169.568 29.6779 169.892C30.1578 170.215 30.8469 170.949 31.2096 171.52C31.572 172.092 32.2469 172.697 32.7093 172.864C33.1717 173.032 34.1777 174.074 34.9453 175.181C36.2264 177.03 40.9007 181.404 44.4157 184.044C45.2109 184.641 46.0172 185.509 46.2075 185.973C46.3978 186.438 47.4863 187.716 48.6263 188.813C49.8895 190.029 50.7317 191.204 50.7812 191.819C50.8894 193.162 53.0218 194.759 54.6662 194.73C55.3274 194.717 55.9328 194.531 56.0112 194.315C56.0896 194.098 56.418 194.017 56.7414 194.134C57.0653 194.251 57.5122 194.136 57.7352 193.879C57.9582 193.622 59.0381 193.187 60.1351 192.913C61.2318 192.638 63.8499 191.763 65.9521 190.966C68.0543 190.169 70.2549 189.399 70.8414 189.253C73.3178 188.638 78.4441 187.102 79.2626 186.73C80.7088 186.072 81.3435 185.883 85.5394 184.86C91.244 183.47 94.2529 182.607 95.1895 182.093C95.6367 181.847 96.5622 181.605 97.2468 181.555C98.6404 181.454 98.711 181.429 103.079 179.535C104.808 178.785 107.003 178.074 107.956 177.955C108.909 177.836 110.28 177.406 111.001 177C111.723 176.595 113.59 175.943 115.151 175.553C117.885 174.869 123.966 172.444 127.279 170.718C128.157 170.261 129.108 169.97 129.393 170.073C129.677 170.175 130.092 170.05 130.314 169.794C130.76 169.28 136.294 167.361 136.803 167.545C136.979 167.609 138.512 167.064 140.21 166.335C141.908 165.605 144.023 164.813 144.91 164.574C145.797 164.336 147.482 163.614 148.655 162.972C149.828 162.329 151.21 161.82 151.726 161.841C152.242 161.861 153.361 161.586 154.213 161.228C157.85 159.701 160.419 158.82 162.16 158.504C163.182 158.319 164.782 157.788 165.714 157.325C166.646 156.862 167.741 156.604 168.147 156.751C168.817 156.993 173.365 155.759 176.328 154.531C177.474 154.057 177.548 153.91 179.158 148.821C180.067 145.949 180.809 143.146 180.808 142.592C180.807 142.04 181.183 140.65 181.645 139.504C182.107 138.359 182.391 137.134 182.276 136.782C182.16 136.431 182.421 134.963 182.855 133.521C184.261 128.842 184.537 127.762 184.496 127.086C184.475 126.72 185.066 124.493 185.81 122.137C187.156 117.879 187.899 114.055 187.678 112.532C187.615 112.094 187.882 110.569 188.272 109.144C188.841 107.065 189.23 106.325 190.243 105.396C190.936 104.76 191.993 103.537 192.591 102.679C193.188 101.821 194.651 100.203 195.841 99.082C198.709 96.3826 202.419 92.2187 203.881 90.0578C204.53 89.0995 206.604 86.7832 208.49 84.9111C211.735 81.6887 212.067 81.4733 214.681 80.8854C216.2 80.5436 218.02 80.0214 218.725 79.7248C220.986 78.7727 224.307 77.7022 224.632 77.8197C224.806 77.8825 225.94 77.5113 227.152 76.9948C228.363 76.4787 229.519 76.1157 229.719 76.1879C229.92 76.2605 230.797 76.0965 231.668 75.8232L233.251 75.3267L235.21 76.9479C238.027 79.2789 240.982 81.0396 247.129 84.0491C247.839 84.3967 249.619 85.4124 251.084 86.3063C252.548 87.2001 254.017 88.0017 254.347 88.0886C254.677 88.1747 255.019 88.3179 255.106 88.406C255.194 88.4945 256.023 88.9029 256.949 89.3137C262.676 91.8527 264.044 92.3292 265.945 92.4479C267.526 92.5463 268.081 92.7241 268.375 93.2243C268.672 93.7289 269.108 93.8395 270.34 93.7216C271.21 93.6379 272.028 93.7024 272.156 93.8639C272.285 94.0259 273.742 94.4485 275.395 94.803C277.047 95.1576 278.658 95.5427 278.974 95.6589C279.291 95.7752 279.952 95.8372 280.445 95.7976C280.937 95.7576 282.939 95.8968 284.893 96.106C286.848 96.3161 289.203 96.558 290.128 96.6441C291.052 96.7302 293.107 96.9941 294.694 97.2308C302.74 98.4309 305.094 98.5843 308.909 98.1568C313.957 97.591 316.389 97.1434 316.923 96.6825C317.186 96.4552 317.858 96.3161 318.417 96.3728C319.696 96.503 322.703 94.6741 323.838 93.0754C325.006 91.4293 324.647 89.3602 323.03 88.4072C321.286 87.3808 320.24 87.5309 318.818 89.011C317.809 90.0614 317.031 90.4147 315.3 90.6073C314.077 90.7423 312.278 91.0242 311.303 91.2323C309.193 91.6834 303.961 91.8242 302.866 91.4591C302.44 91.3167 300.931 91.1658 299.513 91.1242C296.931 91.0479 294.101 90.7696 289.446 90.1341C288.08 89.9476 286.512 89.8603 285.962 89.9399C285.411 90.0198 284.269 89.835 283.424 89.5299C282.579 89.2239 281.332 88.9881 280.654 89.0048C279.975 89.022 278.468 88.696 277.304 88.2811C276.141 87.8663 274.697 87.5354 274.095 87.5464C271.192 87.5986 262.105 84.8695 259.21 83.0757C257.019 81.718 250.599 78.4185 248.626 77.6353C247.68 77.26 247.314 76.8577 247.262 76.1332C247.179 74.9922 245.414 73.7814 243.628 73.6411C242.051 73.5166 240.417 72.724 239.339 71.5605C238.848 71.0294 238.015 70.5512 237.489 70.4978C235.953 70.342 233.577 67.7857 233.413 66.1132C233.336 65.3217 233.037 62.9291 232.749 60.7968C232.46 58.6644 232.333 56.6047 232.467 56.2192C232.6 55.8345 232.653 55.1315 232.584 54.6579C232.515 54.1843 232.675 52.6443 232.94 51.2356C233.205 49.8274 233.602 47.695 233.823 46.4969C234.197 44.4665 235.485 41.4844 238.415 35.8671C239.057 34.6355 239.943 33.5453 240.594 33.1842C241.198 32.8497 242.305 32.0891 243.055 31.4946C243.805 30.8999 245.079 30.3408 245.886 30.2517L247.354 30.0899L247.491 31.9052C247.613 33.53 247.425 34.1553 245.697 37.8617C242.653 44.3927 239.93 53.5968 240.612 55.05C240.773 55.3943 240.785 56.0327 240.638 56.4688C240.491 56.9053 240.332 59.1001 240.282 61.3463C240.208 64.7547 240.343 65.5828 241.094 66.3449C242.473 67.745 244.566 67.9245 245.837 66.7516C246.813 65.8496 246.886 65.6089 246.964 63.007C247.01 61.4776 247.275 59.9311 247.552 59.5705C247.829 59.2094 247.953 58.6265 247.827 58.276C247.7 57.9248 247.88 56.2905 248.225 54.6445C248.57 52.998 248.914 50.9362 248.988 50.0628C249.062 49.1894 249.286 48.3453 249.485 48.1878C249.685 48.0296 249.896 47.281 249.956 46.5238C250.026 45.6284 250.704 43.939 251.895 41.6876C252.902 39.7848 253.727 38.0023 253.728 37.726C253.732 37.0577 255.827 34.1093 257.124 32.9486C257.693 32.4387 258.239 31.8035 258.337 31.5374C258.435 31.2713 258.778 30.8093 259.098 30.5109C259.419 30.2125 260.243 29.4231 260.928 28.7565C261.615 28.0901 262.344 27.5075 262.551 27.4619C263.619 27.2259 263.923 30.369 263.124 33.3823C262.951 34.0355 262.607 35.4731 262.36 36.577C262.113 37.6809 261.335 40.3323 260.63 42.4696C259.926 44.6069 259.415 46.8037 259.495 47.352C259.574 47.8998 259.358 49.3786 259.013 50.6388C256.876 58.4576 256.82 61.8456 258.784 64.6874C260.161 66.6814 261.527 67.0714 263.074 65.9124C263.959 65.2499 264.071 64.8975 264.581 61.1492C264.884 58.9234 265.151 56.426 265.175 55.5995C265.2 54.7734 265.74 52.528 266.375 50.6102C267.01 48.6925 267.708 46.3088 267.926 45.3138C268.718 41.6929 269.994 37.9685 271.299 35.4703C273.295 31.65 273.316 31.6165 274.913 29.5489C275.998 28.1445 276.705 27.6047 277.546 27.5371C278.783 27.438 278.725 27.3503 279.677 30.7778C279.883 31.5195 280.011 33.1858 279.962 34.4804C279.912 35.7749 279.852 37.7659 279.828 38.9043C279.804 40.0759 279.493 41.4966 279.114 42.1767C278.746 42.838 278.347 44.1956 278.229 45.1939C278.111 46.1922 276.974 49.8539 275.703 53.3317C273.481 59.4097 273.408 59.7234 273.812 61.4254C274.497 64.3019 276.954 65.3128 279.31 63.6871C280.471 62.885 280.783 62.3078 282.4 57.9721C283.389 55.3196 284.28 52.4954 284.38 51.6966C284.908 47.48 285.288 45.7255 286.582 41.5362C288.004 36.9299 290.876 30.848 291.71 30.6737C291.942 30.6252 292.376 29.9093 292.676 29.0827C293.095 27.9269 293.479 27.5185 294.341 27.3143C294.958 27.1684 295.711 27.2641 296.015 27.5271C297.028 28.4037 297.266 33.3098 296.462 36.7581C295.289 41.794 293.28 46.5687 291.938 47.5102C291.401 47.8872 290.876 48.4322 290.771 48.7218C290.484 49.5145 291.028 51.9304 291.535 52.1139C291.779 52.2021 291.852 53.0579 291.696 54.0158C291.405 55.8018 291.168 56.743 289.954 60.9338C289.292 63.2175 289.445 66.1927 290.284 67.3823C291.246 68.7444 294.281 68.8207 295.856 67.5222C296.443 67.0388 297.172 66.7336 297.477 66.8438C297.782 66.9539 298.093 66.8748 298.167 66.668C298.368 66.1148 301.946 65.6958 303.838 66.0038C304.74 66.1511 307.271 66.6606 309.462 67.1367C312.756 67.8522 313.625 67.8943 314.478 67.3807C315.045 67.0388 315.593 66.5272 315.696 66.2441C316.463 64.1268 314.411 61.3756 311.698 60.8832C310.841 60.7278 309.515 60.4378 308.75 60.2387C307.986 60.0396 306.615 59.929 305.704 59.9927C304.793 60.0563 303.652 59.967 303.169 59.7952C302.687 59.6227 301.255 59.5737 299.987 59.6859L297.683 59.8903L297.592 58.7599C297.542 58.1381 297.566 57.6054 297.645 57.576C297.725 57.5466 298.506 57.4332 299.382 57.3247C300.257 57.2158 301.513 56.9873 302.172 56.8172C308.136 55.2752 316.116 53.5622 317.838 53.4541C319.002 53.3815 320.154 53.0914 320.398 52.8099C320.642 52.5284 322.093 52.1193 323.623 51.9002C325.152 51.6811 327.223 51.1467 328.226 50.713C329.228 50.2794 330.66 49.8172 331.406 49.6862C332.153 49.5553 333.362 49.2045 334.093 48.9071C337.529 47.5086 342.518 46.0526 344.211 45.9543C345.241 45.8943 347.068 45.437 348.271 44.9381C349.475 44.4388 351.077 43.946 351.83 43.8424C352.585 43.7387 353.998 43.3455 354.971 42.9681C355.943 42.5908 356.865 42.3272 357.018 42.3819C357.171 42.437 359.175 41.6268 361.472 40.5823L365.647 38.6835L366.793 35.0223C368.205 30.5147 368.179 27.4971 366.718 26.2476C366.169 25.7779 365.696 24.8047 365.615 23.9775C365.278 20.5374 361.725 17.4197 357.652 16.9893ZM312.244 10.3726C312.542 10.8304 313.201 11.3553 313.708 11.5385C314.215 11.7219 314.944 12.3761 315.329 12.9922C315.713 13.6084 316.301 14.2291 316.634 14.372C317.236 14.6288 321.178 23.5003 321.149 24.53C321.14 24.8237 320.675 25.0723 320.114 25.0822C319.553 25.0922 318.635 25.3454 318.074 25.6448C317.512 25.9446 316.09 26.3632 314.913 26.5756C313.737 26.7875 312.635 27.0626 312.465 27.1866C312.016 27.5153 308.601 28.3481 308.24 28.2175C308.071 28.1563 307.493 28.3391 306.956 28.6239C306.419 28.9091 305.398 29.2094 304.687 29.2914C303.454 29.4343 303.388 29.3843 303.231 28.1872C303.004 26.4489 301.353 23.5006 299.731 21.9359C298.516 20.7635 298.163 20.6099 296.387 20.4778C295.294 20.3965 293.624 20.6333 292.677 21.004C290.792 21.7413 286.619 25.4335 286.103 26.8198C285.842 27.522 285.688 27.2676 285.305 25.5011C284.916 23.7116 284.53 23.084 283.192 22.064C279.825 19.4983 279.746 19.4759 277.024 20.3134C274.665 21.0389 274.24 21.0236 270.271 20.0723C267.942 19.5138 265.788 18.8421 265.484 18.5791C264.598 17.8134 262.449 18.1345 261.498 19.1747C260.367 20.4122 260.254 20.4258 256.573 19.7843C252.6 19.0916 251.041 18.5334 251.026 17.7991C251.018 17.3591 251.973 17.4145 254.893 18.0242C258.1 18.6935 259.046 18.7261 260.362 18.2111C261.238 17.8686 262.482 17.5803 263.127 17.5697C263.771 17.5594 264.519 17.298 264.787 16.9886C265.055 16.6793 266.065 16.1173 267.031 15.7393C267.997 15.3613 269.221 14.5809 269.751 14.0043C270.517 13.1717 271.032 13.0083 272.255 13.2099C273.101 13.3499 274.696 13.4019 275.799 13.3259C276.901 13.2502 278.179 13.3488 278.639 13.5449C280.3 14.2545 285.791 12.9686 289.412 11.0216C290.326 10.53 292.07 9.59852 293.286 8.95139C294.503 8.30442 295.842 7.46005 296.262 7.07523C296.682 6.69057 297.327 6.48415 297.695 6.61731C298.063 6.7503 298.863 6.72427 299.474 6.5597C300.261 6.34749 300.989 6.48501 301.979 7.03276C302.796 7.48477 303.536 7.6772 303.764 7.49705C303.98 7.32555 304.654 7.48493 305.288 7.85768C305.913 8.225 306.918 8.50913 307.523 8.48947C309.152 8.43591 311.627 9.42314 312.244 10.3726ZM259.11 12.1456C258.603 12.4147 257.694 12.5465 257.091 12.439C256.487 12.3313 255.617 12.2633 255.158 12.2884C254.551 12.321 254.42 12.2096 254.678 11.8823C255.069 11.3892 255.665 11.2755 257.631 11.3193C259.779 11.3673 260.168 11.5848 259.11 12.1456ZM253.114 26.7797C252.93 27.2895 252.816 27.2783 252.486 26.7164C252.264 26.3391 252.106 25.9654 252.135 25.886C252.164 25.8062 252.447 25.8347 252.764 25.9492C253.081 26.0638 253.238 26.4375 253.114 26.7797ZM222.361 62.4751C221.977 62.6998 221.6 62.748 221.521 62.5819C221.443 62.4159 221.692 62.2111 222.074 62.1271C223.073 61.9072 223.157 62.0088 222.361 62.4751ZM79.4137 18.2618C78.8504 18.168 78.1675 18.1652 77.8959 18.2557C77.6239 18.3462 76.6171 18.2746 75.6577 18.0965C74.6991 17.9182 73.2696 18.0093 72.4813 18.2988C71.6934 18.5879 70.8308 18.7459 70.5641 18.6495C69.6982 18.3364 66.8151 19.4803 65.8099 20.536C65.2704 21.1021 63.9707 21.9983 62.9215 22.5271C61.8722 23.0557 60.9822 23.5757 60.9434 23.6827C60.9046 23.7893 60.1302 24.6209 59.2227 25.5308C58.3147 26.4404 56.9951 28.0823 56.2901 29.1789C55.2106 30.858 54.7887 31.194 53.6128 31.3091C52.845 31.3842 51.4784 31.8959 50.5761 32.446C49.6735 32.996 48.228 33.8124 47.3638 34.2599C45.1529 35.4056 43.1124 36.9283 42.8616 37.6203C42.7448 37.9434 42.2469 38.4208 41.7568 38.6808C41.2658 38.9407 40.4647 39.838 39.9758 40.6743C39.4872 41.5109 38.4446 43.1337 37.6587 44.2813C36.8731 45.4293 35.9309 47.1855 35.5656 48.1838C35.1997 49.1828 34.2259 50.7828 33.4016 51.7399C31.1712 54.3291 30.8095 55.7072 31.8036 57.8269C32.7291 59.8001 33.209 60.0894 35.3812 59.9837C37.1422 59.8984 38.0236 58.9288 37.9433 57.1652C37.9005 56.2224 38.1644 55.4477 38.9535 54.2002C39.5413 53.2713 40.4461 51.6925 40.9652 50.6918C41.4835 49.6907 42.4303 48.5113 43.0679 48.0712C43.8128 47.5571 44.2633 46.9207 44.3271 46.2913C44.4651 44.9357 48.7549 40.6781 51.0785 39.5909C53.0435 38.6713 53.3572 38.6241 53.1182 39.2828C53.0345 39.5141 52.9022 40.6949 52.8237 41.9066C52.6984 43.8481 52.8772 44.3719 54.328 46.3133C57.0216 49.9184 59.5592 50.3716 63.6898 47.9863C66.8666 46.1526 67.5278 45.4485 68.5089 42.8568C69.2518 40.8957 69.2959 40.277 68.8136 38.5815C68.5032 37.491 67.5429 35.6392 66.6791 34.4666C65.4187 32.7557 64.8583 32.2964 63.8433 32.1434C62.7189 31.9738 62.6417 31.8833 63.1424 31.3285C63.452 30.985 64.0925 30.1714 64.5654 29.5203C65.6135 28.0782 70.3832 25.3538 72.7934 24.8204C73.7622 24.6062 74.9748 24.5826 75.4882 24.7682C77.0358 25.3276 81.328 25.061 82.2817 24.3464C83.6079 23.3533 83.7108 21.4526 82.5202 19.9514C81.5318 18.7051 81.2933 18.5751 79.4137 18.2618ZM61.666 39.1954C62.58 40.7315 62.3554 41.502 60.7927 42.1926L59.3685 42.8221L59.2811 41.7345C59.2329 41.1364 59.3015 39.9854 59.4339 39.1768C59.6397 37.9158 59.7753 37.7444 60.3859 37.9734C60.7772 38.12 61.3531 38.6702 61.666 39.1954ZM181.982 110.284C181.962 111.201 181.827 112.42 181.681 112.995C181.533 113.57 180.94 116.017 180.362 118.433C179.785 120.849 178.562 125.004 177.646 127.666C176.73 130.329 176.032 132.752 176.094 133.05C176.157 133.349 175.81 134.913 175.323 136.527C174.837 138.141 174.5 139.888 174.576 140.41C174.653 140.94 174.166 142.75 173.475 144.504C172.794 146.233 172.295 147.923 172.365 148.26C172.498 148.895 170.062 150.021 169.18 149.733C168.933 149.652 167.788 149.929 166.636 150.347C165.484 150.766 164.427 151.068 164.288 151.019C164.15 150.97 163.303 151.245 162.406 151.629C161.509 152.014 159.991 152.528 159.033 152.771C158.075 153.015 156.581 153.453 155.713 153.746C154.846 154.038 152.921 154.661 151.438 155.128C149.954 155.596 147.621 156.463 146.252 157.055C144.883 157.646 143.42 158.177 143.001 158.234C142.582 158.291 141.284 158.817 140.116 159.403C138.948 159.989 137.269 160.576 136.385 160.709C134.59 160.979 130.305 162.405 127.408 163.697C124.782 164.868 119.315 167.225 117.123 168.132C116.122 168.545 115.112 168.815 114.878 168.73C114.644 168.645 114.144 168.853 113.767 169.191C113.39 169.53 112.523 169.88 111.841 169.969C111.158 170.058 109.798 170.457 108.818 170.854C107.838 171.251 106.062 171.837 104.871 172.156C103.681 172.474 101.81 173.054 100.713 173.443C99.6161 173.832 97.2598 174.671 95.4766 175.307C93.693 175.943 90.0918 176.982 87.4733 177.614C84.8549 178.248 81.9639 179.038 81.0486 179.371C80.1338 179.704 79.1568 179.972 78.8782 179.967C77.6974 179.943 73.9133 181.144 71.4521 182.323C69.9935 183.022 67.8301 183.845 66.644 184.151C65.4579 184.457 63.559 185.112 62.4244 185.607C61.2894 186.101 59.5204 186.726 58.4924 186.995L56.6246 187.484L54.4109 185.471C53.1934 184.364 51.8353 182.931 51.393 182.285C50.646 181.195 46.4248 177.384 43.2651 174.949C42.5181 174.373 41.2479 173.024 40.4423 171.951C39.6367 170.878 38.4289 169.492 37.758 168.87C37.0874 168.249 36.0264 167.266 35.4005 166.685C33.9355 165.327 34.2458 164.432 36.0783 164.731C36.8518 164.857 38.228 164.663 39.1366 164.299C40.0451 163.935 41.12 163.757 41.5252 163.904C41.9304 164.05 42.8947 163.854 43.6679 163.468C44.441 163.082 46.087 162.584 47.3258 162.362C48.565 162.139 50.5124 161.502 51.6544 160.947C52.796 160.392 55.0918 159.614 56.7562 159.217C58.4205 158.821 60.9316 157.942 62.3366 157.262C63.7416 156.583 65.6445 155.835 66.5655 155.601C67.4866 155.366 68.8401 154.892 69.5733 154.546C70.3068 154.201 71.8523 153.674 73.0082 153.376C75.7161 152.678 78.4469 151.588 89.5049 146.792C91.478 145.936 93.26 145.296 93.4643 145.37C93.6685 145.443 94.5907 145.142 95.513 144.7C96.4348 144.258 97.8533 143.619 98.6649 143.28C99.4756 142.941 101.1 142.113 102.275 141.44C103.45 140.767 104.567 140.273 104.758 140.342C105.094 140.463 108.149 139.169 116.22 135.483C118.335 134.518 120.202 133.776 120.37 133.834C120.914 134.024 127.06 131.098 127.605 130.391C127.895 130.012 128.387 129.795 128.696 129.907C129.006 130.018 130.743 129.37 132.556 128.465C137.922 125.787 143.198 123.117 144.647 122.348C145.391 121.952 146.605 121.488 147.343 121.317C148.082 121.145 150.065 120.406 151.751 119.674C153.436 118.943 155.298 118.217 155.888 118.063C156.478 117.909 158.384 117.125 160.123 116.322C161.862 115.519 164.026 114.656 164.931 114.404C165.837 114.153 166.804 113.765 167.08 113.542C167.356 113.319 168.425 112.951 169.456 112.726C170.487 112.5 171.678 111.96 172.104 111.526C172.529 111.092 173.051 110.8 173.263 110.877C173.475 110.953 174.014 110.864 174.459 110.678C176.636 109.772 177.428 109.498 178.731 109.2C179.508 109.023 180.5 108.633 180.934 108.334C181.857 107.698 182.028 108.016 181.982 110.284ZM67.4335 68.4434C67.7957 68.9039 68.9622 69.7068 70.025 70.2273C72.5189 71.4483 74.4618 73.7895 76.3018 77.7907C78.0699 81.6352 79.7188 85.8049 79.9867 87.1103C80.164 87.9711 80.0929 88.0401 79.3165 87.7614C78.462 87.4555 78.4608 87.464 79.2262 88.3003C80.4609 89.6494 81.4416 92.091 81.8279 94.7753C82.0248 96.1395 82.3777 97.7293 82.6125 98.3073C82.8474 98.8858 83.0704 100.528 83.108 101.957C83.186 104.903 83.8811 108.499 84.4101 108.69C84.6045 108.76 84.7474 109.219 84.7278 109.709C84.7082 110.199 84.9304 111.206 85.222 111.948C86.4257 115.011 87.0261 116.854 87.1711 117.931C87.7417 122.172 91.5785 131.554 94.3007 135.366L95.0298 136.386L93.276 135.832C92.3112 135.527 91.1868 135.124 90.7768 134.938C90.3667 134.75 88.7391 134.118 87.1597 133.531C85.5806 132.944 82.9736 131.704 81.366 130.774C79.7588 129.844 78.1406 129.089 77.7701 129.096C77.3993 129.103 76.2128 128.408 75.1325 127.55C71.2107 124.439 70.6499 124.078 69.5594 123.967C68.7899 123.889 67.9481 123.34 66.8106 122.174C61.0762 116.298 59.6532 114.743 59.7541 114.465C59.8166 114.293 59.3501 113.558 58.7175 112.831C56.2942 110.046 55.2985 108.716 53.331 105.629C52.2123 103.876 50.8526 101.578 50.3086 100.524C49.765 99.4696 49.2483 98.5811 49.1609 98.5497C48.3252 98.2474 45.7435 90.1296 45.4094 86.7538C44.9344 81.9518 46.0396 77.6022 49.2401 71.6792C51.1426 68.1586 52.0248 67.1975 53.6953 66.8246C54.5257 66.6394 55.6763 66.3481 56.253 66.1768C56.8297 66.0063 59.2055 66.1923 61.5328 66.5905C66.8212 67.4953 66.644 67.4402 67.4335 68.4434ZM17.2418 54.447C16.6821 54.7089 15.8812 55.5415 15.4612 56.2979C15.0413 57.0538 14.51 57.9782 14.2804 58.3515C14.0514 58.7248 13.9174 59.4016 13.9833 59.8548C14.0949 60.623 13.6945 63.9661 12.9231 68.7004C12.7431 69.8035 12.812 71.2064 13.0757 71.8175C13.3397 72.4294 13.4066 73.8352 13.2247 74.9428C13.0047 76.2829 13.1181 77.3306 13.5643 78.0771C13.9329 78.6939 14.1551 79.7648 14.0581 80.4567C13.9609 81.149 14.1269 82.2937 14.4266 83.0006C14.726 83.7076 15.0419 84.7887 15.1285 85.4031C15.3055 86.6575 15.7191 87.7732 17.3898 91.5052C18.4122 93.7877 18.6918 94.1083 19.8045 94.2764C21.4424 94.5236 23.865 93.405 24.7102 92.011C25.5192 90.6774 24.8752 88.902 23.387 88.364C22.3255 87.9801 21.3301 86.2487 21.6552 85.3517C21.7699 85.0351 21.7078 84.7197 21.5177 84.6512C20.8545 84.4113 19.5355 75.035 19.6849 71.6237C19.7261 70.6842 19.6675 69.6966 19.5542 69.429C19.4414 69.1614 19.5201 68.4695 19.7297 67.891C19.9393 67.3125 19.9765 66.6704 19.8126 66.4636C19.6486 66.2572 19.7886 65.3315 20.1236 64.4071C20.4586 63.4823 20.5985 62.5571 20.4346 62.3502C20.2706 62.1434 20.3349 61.423 20.5777 60.7494C22.0754 56.5949 20.2044 53.0608 17.2418 54.447ZM131.033 113.649C131.353 114.104 132.145 114.667 132.795 114.902C133.67 115.218 134.222 115.874 134.929 117.436L135.882 119.544L132.893 120.93C129.719 122.403 125.696 124.222 122.797 125.496C121.828 125.921 120.866 126.208 120.657 126.132C120.448 126.057 119.94 126.34 119.527 126.761C119.114 127.182 118.301 127.595 117.72 127.68C117.14 127.764 115.468 128.538 114.006 129.399C112.543 130.261 110.931 130.923 110.421 130.872C109.912 130.82 108.778 131.268 107.9 131.868C105.836 133.279 103.887 133.627 101.724 132.968C100.174 132.496 99.8648 132.203 98.8499 130.236C95.8744 124.47 94.1504 120.309 93.9821 118.488C93.8804 117.39 93.5606 116.146 93.2719 115.724C92.9831 115.303 92.6033 114.076 92.4281 112.998C92.2532 111.921 91.9857 110.995 91.8346 110.94C91.6827 110.885 91.4245 110.126 91.2599 109.252L90.961 107.663L92.0772 107.778C92.6911 107.841 93.5325 107.766 93.947 107.61C94.3616 107.454 95.6318 107.456 96.7693 107.613C97.9068 107.77 100.203 107.906 101.872 107.915C105.86 107.938 109.618 108.171 111.642 108.523C112.541 108.679 114.733 108.924 116.513 109.066C118.41 109.218 120.189 109.591 120.812 109.968C121.397 110.323 122.245 110.551 122.698 110.477C124.006 110.262 130.349 112.676 131.033 113.649ZM2.35973 98.9503C0.694309 99.7294 -0.329213 101.624 0.152936 103.035C0.384567 103.713 2.19124 105.287 6.79103 108.82C7.51216 109.374 9.26157 110.315 10.6786 110.912C12.0957 111.508 13.5085 112.319 13.8186 112.714C14.1598 113.148 14.9558 113.525 15.8372 113.669C17.6574 113.965 19.1482 112.621 19.0028 110.815C18.8602 109.043 15.5203 105.981 12.1012 104.488C9.36821 103.295 7.07783 101.499 5.87409 99.6038C5.07221 98.3416 4.06177 98.1539 2.35973 98.9503Z" fill="black"/>
</g>
<defs>
<clipPath id="clip0_19_2482">
<rect width="368" height="195" fill="white"/>
</clipPath>
</defs>
</svg>
