<svg width="364" height="188" viewBox="0 0 364 188" fill="none" xmlns="http://www.w3.org/2000/svg">
<path fill-rule="evenodd" clip-rule="evenodd" d="M286.881 0.412746C286.744 0.550329 285.202 0.687911 280.506 0.963077C279.409 1.03187 277.593 1.23824 276.496 1.41022C275.399 1.6166 274.234 1.75418 273.925 1.75418C272.966 1.75418 267.619 2.47649 264.02 3.06122C263.129 3.1988 262.101 3.54276 261.758 3.78353C261.415 4.0243 260.764 4.23067 260.318 4.23067C259.598 4.23067 256.925 5.12496 254.8 6.08804C254.32 6.29442 253.635 6.53519 253.223 6.63838C251.235 7.05113 250.241 7.42948 249.213 8.083C248.596 8.49575 247.876 8.8397 247.637 8.8397C247.02 8.8397 245.511 9.6652 245.511 9.97476C245.511 10.1123 245.237 10.2155 244.86 10.2155C244.14 10.1467 240.165 12.4513 239.788 13.1392C239.65 13.3799 238.691 13.8271 237.628 14.1366C236.566 14.4462 235.64 14.859 235.572 15.0653C235.503 15.2717 234.646 15.8564 233.687 16.338C232.727 16.8195 231.459 17.5762 230.91 18.0578C230.328 18.5049 229.745 18.8833 229.642 18.8833C229.505 18.8833 228.888 19.1584 228.271 19.4336C227.654 19.7432 226.969 19.9839 226.797 19.9839C226.626 19.9839 226.386 20.2591 226.283 20.5687C226.18 20.8782 225.94 21.1534 225.735 21.1534C225.529 21.1534 224.569 21.8069 223.576 22.598C222.582 23.3891 221.725 24.0426 221.622 24.0426C221.519 24.0426 221.073 24.6274 220.594 25.3153C220.114 26.0376 219.634 26.5879 219.531 26.6223C219.428 26.6223 218.914 27.0351 218.4 27.5166C217.886 27.9981 217.166 28.5829 216.755 28.8236C216.378 29.03 215.692 29.6491 215.247 30.1651C214.116 31.5065 210.311 35.3932 208.015 37.5602C205.444 40.0023 203.388 42.3412 202.359 43.9922L201.537 45.3336L202.017 46.6062C202.291 47.2941 202.771 48.0165 203.113 48.2228C204.313 48.842 206.404 51.3872 206.884 52.7975C207.124 53.5542 207.569 54.4829 207.843 54.8268C208.118 55.2052 208.563 56.3402 208.837 57.3377C209.111 58.3696 209.523 59.5734 209.694 60.055C209.9 60.5365 210.277 61.534 210.551 62.2563C210.859 63.1162 211.682 64.2856 212.882 65.5583C214.87 67.6564 214.938 67.9316 214.013 70.0297C213.773 70.5457 213.499 71.268 213.396 71.6463C213.293 72.0247 212.882 72.8502 212.505 73.4349C212.128 74.0196 211.751 74.9483 211.648 75.4299C211.476 76.2898 209.866 80.1077 209.249 81.0708C208.563 82.1714 207.843 84.0632 207.843 84.8543C207.843 86.6429 209.351 88.2595 210.654 87.8467C211.099 87.7092 211.476 87.9155 212.265 88.741C212.813 89.3258 213.293 89.9105 213.293 90.0137C213.293 90.1169 213.807 90.5296 214.424 90.9424C215.041 91.3551 215.966 92.3182 216.481 93.0749C216.995 93.8316 217.852 94.8979 218.366 95.4482C218.88 95.9985 219.291 96.6864 219.325 96.996C219.325 97.3056 219.805 97.9591 220.354 98.475L221.382 99.4381L220.045 99.6445C219.325 99.7477 218.092 99.7477 217.372 99.6789C214.733 99.3349 212.025 99.2661 211.476 99.5757C211.168 99.7477 210.448 99.9196 209.9 99.954C209.351 99.9884 208.186 100.092 207.329 100.16C203.799 100.436 189.986 100.298 184.468 99.954C182.96 99.8509 180.389 99.7133 178.744 99.6789C177.099 99.6101 175.179 99.4381 174.46 99.2661C173.363 99.0254 170.792 98.8878 167.605 98.9222C167.227 98.9222 165.342 98.8878 163.457 98.819C161.572 98.7502 159.207 98.819 158.179 98.991C157.151 99.1285 155.471 99.3693 154.477 99.5069C152.489 99.7477 148.308 100.745 146.937 101.295C146.491 101.467 145.806 101.639 145.463 101.674C145.12 101.674 144.572 101.915 144.298 102.121C143.783 102.534 143.338 102.774 141.35 103.669C140.801 103.91 140.013 104.322 139.602 104.597C137.922 105.767 136.894 106.386 136.723 106.386C136.62 106.386 136.449 106.696 136.346 107.108C136.243 107.487 136.037 107.831 135.9 107.831C135.249 107.831 134.666 109.413 134.461 111.786C134.255 114.228 134.221 114.297 133.158 115.191C131.547 116.533 129.251 117.633 127.743 117.737C127.023 117.771 126.269 117.977 126.098 118.149C125.926 118.321 125.549 118.459 125.275 118.459C125.001 118.459 124.144 118.734 123.424 119.078C121.95 119.766 117.803 120.557 117.083 120.351C116.809 120.282 115.644 120.385 114.444 120.626C112.696 120.97 111.976 120.97 110.605 120.695C109.234 120.42 108.686 120.42 107.658 120.729C106.972 120.935 106.012 121.039 105.567 120.97C105.121 120.901 104.401 121.004 103.956 121.245C103.339 121.589 102.791 121.589 101.522 121.383C100.631 121.245 99.6716 121.211 99.4316 121.348C99.1917 121.486 97.6836 121.692 96.107 121.795C93.2964 122.002 92.0968 122.139 86.9556 122.896C84.5906 123.24 84.2821 123.24 82.9454 122.758C82.1571 122.483 81.2659 122.242 80.9574 122.242C80.2034 122.242 76.5017 121.417 75.9533 121.107C75.3706 120.798 67.4874 120.557 65.1224 120.798C64.574 120.832 62.9631 121.004 61.5578 121.142C60.1525 121.279 57.8904 121.451 56.5194 121.52C55.1484 121.589 53.229 121.864 52.235 122.105C51.241 122.346 49.7672 122.552 48.9789 122.552C48.1906 122.552 47.0252 122.758 46.4083 122.965C45.7913 123.206 44.626 123.378 43.8377 123.378C43.0493 123.378 41.9183 123.515 41.3013 123.687C40.6844 123.859 39.519 124.031 38.7307 124.1C34.8233 124.375 32.0471 124.788 31.0874 125.201C30.5047 125.441 29.4422 125.648 28.7224 125.648C27.7284 125.613 27.2143 125.785 26.7345 126.232C26.3917 126.576 25.9461 126.852 25.7405 126.852C25.5691 126.852 25.1578 126.989 24.9179 127.127C23.5469 127.883 19.3996 129.706 19.0569 129.706C18.8169 129.706 18.3371 129.982 17.9258 130.291C17.5145 130.601 17.1032 130.876 17.0004 130.876C16.8975 130.876 16.1778 131.254 15.4237 131.736C14.6697 132.217 13.7442 132.664 13.3672 132.768C12.9902 132.871 12.3047 133.249 11.8591 133.627C9.59698 135.485 9.0143 135.966 8.15743 136.792C7.02636 137.858 5.48398 139.853 4.62711 141.435C4.25009 142.089 3.66741 142.742 3.32466 142.914C2.98191 143.086 2.60489 143.568 2.50206 143.981C2.39924 144.393 1.85084 145.46 1.30244 146.354C0.411291 147.764 0.274191 148.211 0.137092 150.447C0.0342666 152.029 0.102817 153.508 0.342741 154.506C0.685491 156.019 2.33069 159.252 3.49604 160.697C3.80451 161.11 4.07871 161.557 4.07871 161.729C4.07871 161.901 4.79849 162.761 5.72391 163.621C6.61506 164.48 7.33483 165.272 7.30056 165.375C7.19773 165.753 11.2422 168.539 12.3733 168.918C12.7503 169.055 13.47 169.468 13.9842 169.846C14.4983 170.225 15.3209 170.672 15.835 170.775C17.2746 171.119 18.577 171.635 20.8049 172.667C21.936 173.183 22.9642 173.63 23.067 173.63C23.1699 173.63 23.9582 173.974 24.8151 174.352C26.3917 175.109 34.3092 176.622 38.0109 176.897C38.7307 176.932 40.3759 177.138 41.7126 177.344C43.8034 177.654 45.1401 177.757 50.1442 177.998C52.0636 178.101 57.719 177.62 59.8441 177.207C61.1122 176.966 63.1002 176.76 64.2655 176.76C66.322 176.76 68.1729 176.657 71.8403 176.313C72.7657 176.209 74.0682 176.278 74.7194 176.416C75.4734 176.588 76.0904 176.588 76.3989 176.416C77.0844 176.037 80.032 175.934 82.1228 176.244C85.5846 176.76 87.3326 177.035 90.2459 177.482C91.8911 177.723 93.5706 177.964 93.9476 177.998C94.3247 178.032 94.8045 178.136 94.9416 178.239C95.9013 178.823 100.871 179.89 103.51 180.062C104.984 180.165 108.926 180.612 111.634 181.025C112.49 181.162 113.45 181.369 113.759 181.541C114.067 181.713 115.095 181.919 116.055 182.022C117.015 182.125 118.591 182.538 119.585 182.951C120.716 183.398 121.847 183.639 122.567 183.604C123.218 183.57 124.452 183.742 125.309 183.983C126.166 184.224 127.64 184.602 128.6 184.774C129.525 184.946 130.827 185.221 131.444 185.359C132.678 185.634 134.392 186.012 136.586 186.459C137.374 186.631 139.43 186.803 141.144 186.872C142.858 186.941 145.84 187.078 147.725 187.182C155.608 187.594 161.024 187.629 177.579 187.526C196.533 187.422 204.896 187.078 205.718 186.425C205.89 186.287 207.055 186.047 208.289 185.875C209.523 185.703 210.791 185.531 211.134 185.462C211.442 185.427 212.676 185.187 213.841 184.912C215.007 184.671 216.378 184.464 216.858 184.464C217.337 184.464 218.606 184.086 219.702 183.639C220.799 183.192 222.273 182.71 222.993 182.607C223.713 182.504 224.535 182.229 224.844 182.057C225.152 181.85 225.872 181.61 226.42 181.506C229.197 180.99 235.16 177.069 236.908 174.627C237.971 173.114 239.102 169.193 238.691 168.402C238.519 168.058 238.485 167.61 238.656 167.163C238.794 166.751 238.828 165.306 238.691 163.621C238.314 159.218 237.663 157.051 236.189 155.366C235.675 154.781 235.263 154.196 235.263 154.093C235.263 153.68 230.808 149.209 229.711 148.486C229.094 148.074 227.757 146.973 226.729 146.01C225.735 145.047 224.809 144.256 224.672 144.256C224.295 144.256 223.781 141.917 223.781 140.335C223.815 138.133 223.953 137.996 225.838 138.374C226.695 138.546 227.997 138.615 228.682 138.512C229.882 138.34 231.973 138.408 235.537 138.718C237.765 138.924 237.971 138.924 240.61 138.58C243.249 138.271 244.757 137.824 245.203 137.273C245.511 136.895 246.266 136.964 249.899 137.686C250.653 137.824 252.298 137.961 253.532 137.961C254.766 137.961 256.514 138.168 257.405 138.374C258.365 138.615 259.496 138.718 260.147 138.615C260.832 138.512 261.415 138.58 261.655 138.787C261.895 138.993 262.169 139.062 262.306 138.993C262.443 138.924 263.129 138.959 263.814 139.096C266.488 139.578 267.173 139.681 269.504 139.819C270.841 139.888 272.383 140.094 272.931 140.231C273.48 140.369 275.091 140.507 276.496 140.541C285.647 140.747 289.623 140.507 296.924 139.372C297.952 139.2 299.769 138.959 300.934 138.821C302.134 138.684 303.676 138.305 304.362 137.996C305.047 137.686 306.452 137.377 307.481 137.273C308.509 137.17 309.606 136.895 309.948 136.654C310.463 136.31 311.251 136.31 314.507 136.551C320.128 136.964 329.005 136.998 330.719 136.586C331.507 136.414 333.05 136.207 334.147 136.138C335.243 136.07 336.546 135.932 336.991 135.863C337.471 135.794 338.568 135.588 339.425 135.416C340.282 135.278 342.03 135.072 343.264 134.969C344.532 134.866 346.177 134.763 346.965 134.694C347.754 134.625 348.85 134.591 349.399 134.591C351.147 134.659 351.455 134.625 354.54 134.419C358.585 134.143 361.018 133.352 362.526 131.839C363.177 131.185 363.76 130.257 363.863 129.741C364.034 128.915 363.897 128.674 362.937 127.677C361.292 126.026 359.887 125.716 353.409 125.51C351.455 125.441 348.885 125.338 347.685 125.269C346.52 125.201 345.08 125.269 344.498 125.407C343.915 125.544 341.55 125.716 339.219 125.82C336.889 125.888 334.215 126.026 333.255 126.129C331.405 126.301 331.439 126.164 333.53 125.063C334.147 124.719 334.901 124.169 335.209 123.79C335.518 123.412 336.237 122.862 336.82 122.552C337.505 122.208 338.259 121.451 338.842 120.488C340.008 118.631 341.104 117.393 341.584 117.393C341.79 117.393 342.167 117.083 342.407 116.67C342.647 116.292 343.332 115.432 343.915 114.813C345.834 112.715 346.725 111.511 347.445 109.929C347.857 109.069 348.645 107.796 349.193 107.108C349.776 106.42 350.221 105.767 350.221 105.629C350.221 105.492 350.804 104.701 351.49 103.875C352.175 103.05 352.963 101.777 353.238 101.055C353.478 100.332 354.129 98.7158 354.643 97.4432C355.157 96.1705 355.945 94.0036 356.391 92.5934C356.837 91.1831 357.351 89.8761 357.556 89.7041C357.899 89.3602 358.276 87.7435 359.236 82.137C359.476 80.83 359.75 79.5918 359.818 79.4542C360.641 78.1127 361.052 71.5775 360.675 65.3175C360.435 61.3276 360.298 60.1582 360.024 59.6766C359.784 59.2639 359.647 58.4728 358.927 52.5223C358.687 50.6993 358.31 48.7388 358.07 48.154C357.83 47.5693 357.625 46.8126 357.625 46.503C357.625 44.9208 354.677 37.8353 353.546 36.6659C353.272 36.3907 353.066 35.978 353.066 35.7716C353.066 35.5652 352.826 35.0837 352.552 34.7053C352.278 34.327 351.73 33.2607 351.387 32.2976C351.01 31.3345 350.427 30.3027 350.084 29.9931C349.742 29.6835 348.988 28.5829 348.439 27.551C347.856 26.5191 346.897 25.1433 346.246 24.4554C345.594 23.7675 345.08 23.0795 345.08 22.942C345.08 22.6668 343.332 20.9126 341.241 19.0896C340.522 18.4705 339.87 17.7138 339.768 17.4386C339.699 17.1635 339.356 16.8539 339.048 16.7851C338.739 16.6819 337.711 15.9596 336.717 15.2029C335.757 14.4118 334.763 13.7927 334.489 13.7927C334.215 13.7927 333.598 13.3455 333.084 12.8296C332.57 12.2793 331.576 11.6258 330.856 11.3506C330.171 11.0754 329.279 10.5595 328.902 10.1811C328.525 9.80278 328.046 9.49322 327.84 9.49322C327.634 9.49322 326.777 8.97729 325.955 8.35816C325.132 7.73904 324.104 7.11992 323.693 7.05113C323.281 6.94794 322.562 6.70717 322.082 6.50079C321.602 6.29442 320.128 5.84727 318.791 5.46892C317.455 5.12496 316.118 4.64342 315.809 4.47144C315.501 4.26507 313.753 3.78353 311.971 3.37078C310.154 2.95803 308.166 2.47649 307.549 2.33891C306.932 2.16693 305.767 1.92616 304.979 1.78858C304.19 1.65099 302.511 1.30703 301.277 1.06626C299.117 0.550328 287.258 0.0687881 286.881 0.412746ZM294.799 5.19375C295.279 5.22815 296.478 5.19375 297.507 5.15936C298.775 5.09057 299.769 5.22815 300.66 5.57211C301.38 5.84727 302.716 6.19123 303.642 6.29442C304.567 6.432 305.938 6.63838 306.624 6.81035C307.343 6.98233 308.406 7.2231 309.057 7.36069C309.674 7.49827 310.463 7.77344 310.805 7.94541C311.148 8.11739 311.868 8.25498 312.45 8.22058C312.999 8.18618 313.65 8.32377 313.856 8.49575C314.061 8.66773 314.815 8.9085 315.501 9.01168C316.186 9.11487 317.043 9.39004 317.352 9.56201C317.66 9.76839 318.38 10.0092 318.928 10.1123C319.477 10.2155 320.368 10.5939 320.916 10.9378C321.465 11.2818 322.185 11.6946 322.493 11.9009C322.802 12.1073 323.727 12.5544 324.55 12.9672C325.372 13.3455 326.126 13.8271 326.229 13.9991C326.332 14.171 327.017 14.6182 327.771 14.9621C329.348 15.7189 330.342 16.338 332.193 17.7826C332.947 18.3673 333.77 18.8489 333.975 18.8489C334.181 18.8489 335.243 19.7432 336.34 20.8438C337.403 21.9445 338.671 23.0108 339.151 23.2515C339.596 23.4923 340.316 24.1114 340.693 24.6274C341.07 25.1433 341.927 26.2096 342.544 27.0351C343.195 27.8262 344.292 29.5459 345.046 30.8186C345.8 32.0912 346.657 33.3639 346.965 33.6734C347.274 33.9486 347.548 34.3614 347.548 34.5333C347.548 34.9805 350.633 41.2061 350.976 41.4125C351.113 41.4813 351.318 42.066 351.421 42.6851C351.524 43.3042 351.798 44.0266 352.004 44.3361C352.209 44.6457 352.415 45.0928 352.415 45.4024C352.415 45.6775 352.621 46.3311 352.826 46.847C353.032 47.3285 353.306 48.0852 353.375 48.4636C353.443 48.842 353.718 49.7362 353.992 50.4586C354.266 51.1465 354.574 52.8319 354.711 54.1733C354.849 55.5147 355.123 57.5441 355.294 58.6447C355.466 59.7454 355.534 60.9837 355.466 61.362C355.397 61.7404 355.5 62.3939 355.705 62.8066C356.151 63.6665 356.425 69.6514 356.117 71.6119C355.98 72.3686 355.98 73.5381 356.117 74.1916C356.254 74.9483 356.185 75.7394 355.98 76.393C355.774 76.9433 355.534 78.1815 355.431 79.0758C355.328 79.9701 355.02 80.9332 354.814 81.2084C354.574 81.4835 354.334 82.4466 354.266 83.4785C354.129 85.6798 353.272 88.5003 352.141 90.6672C351.661 91.5615 351.284 92.6277 351.284 93.0061C351.284 93.3845 351.078 94.0724 350.873 94.5195C350.667 94.9667 350.461 95.6546 350.461 96.0673C350.461 96.4801 350.084 97.4088 349.605 98.1655C349.125 98.9222 348.748 99.7133 348.748 99.9196C348.748 100.126 348.508 100.504 348.234 100.711C347.754 101.089 346.588 102.74 344.737 105.836C344.223 106.696 343.538 107.659 343.264 108.003C342.989 108.312 342.441 108.897 342.098 109.31C341.721 109.722 340.933 110.754 340.316 111.614C339.699 112.474 338.911 113.403 338.534 113.678C338.157 113.953 337.471 114.813 336.957 115.535C336.443 116.258 335.723 117.118 335.346 117.461C334.969 117.771 334.318 118.356 333.907 118.769C332.604 120.041 330.068 121.83 329.245 122.036C328.525 122.208 326.743 123.378 325.029 124.857C324.172 125.613 321.636 126.817 320.951 126.817C320.676 126.817 320.299 127.092 320.094 127.402C319.888 127.711 319.545 127.987 319.305 127.987C319.066 127.987 317.866 128.503 316.632 129.122C315.398 129.741 314.164 130.257 313.924 130.257C313.65 130.257 312.999 130.497 312.45 130.773C310.462 131.805 306.795 132.94 303.916 133.421C302.888 133.593 301.62 133.868 301.071 134.006C299.049 134.556 296.581 134.9 294.079 134.969C292.674 135.003 290.789 135.21 289.898 135.382C289.006 135.554 287.327 135.76 286.196 135.829C285.03 135.898 282.871 136.001 281.329 136.104C279.615 136.207 278.484 136.138 278.381 135.966C278.278 135.794 277.113 135.691 275.811 135.691C274.508 135.691 273.343 135.588 273.274 135.45C273.206 135.313 272.28 135.21 271.252 135.21C270.224 135.21 269.23 135.072 269.024 134.9C268.818 134.728 268.27 134.591 267.824 134.591C266.968 134.591 263.472 134.212 259.838 133.696C258.742 133.559 256.754 133.421 255.383 133.456C254.046 133.456 252.675 133.352 252.401 133.215C252.092 133.077 251.098 132.905 250.173 132.871C248.048 132.768 245.374 131.736 243.661 130.291C242.221 129.087 239.136 127.815 238.245 128.055C237.8 128.159 237.731 128.09 237.868 127.711C237.971 127.436 238.177 126.783 238.348 126.232C238.519 125.682 238.862 124.891 239.171 124.478C239.479 124.065 239.719 123.481 239.719 123.206C239.719 122.724 240.679 120.523 242.187 117.599C242.564 116.877 242.872 116.086 242.872 115.879C242.872 115.673 243.318 114.4 243.866 113.128C244.415 111.821 244.929 110.376 245.032 109.929C245.134 109.447 245.34 109 245.477 108.931C245.614 108.828 245.751 108.553 245.751 108.278C245.751 108.003 246.026 107.315 246.334 106.696C246.643 106.111 247.122 105.01 247.362 104.254C247.602 103.497 248.048 102.603 248.356 102.224C248.665 101.846 248.905 101.295 248.905 101.02C248.905 100.745 249.213 100.023 249.624 99.4381C250.001 98.8534 250.344 97.9935 250.344 97.5119C250.344 96.5489 249.35 94.7259 248.802 94.7259C248.631 94.7259 247.979 94.4507 247.397 94.1412C246.814 93.8316 246.197 93.5564 246.026 93.5564C245.854 93.5564 245.032 93.1093 244.209 92.559C243.386 92.0086 242.358 91.5615 241.947 91.5615C241.536 91.5615 240.816 91.3895 240.405 91.1831C239.993 90.9768 238.965 90.6328 238.142 90.4264C236.497 90.0481 236.531 90.0481 236.908 89.3258C237.594 88.0531 238.622 85.5766 238.622 85.1295C238.622 84.8543 238.759 84.4416 238.896 84.1664C239.753 82.5842 241.193 79.1446 241.193 78.6631C241.193 78.3535 241.433 77.9408 241.741 77.8032C242.05 77.6312 242.392 77.0465 242.495 76.4273C242.769 74.9483 243.798 72.747 245.786 69.5138C246.711 68.0004 247.465 66.6246 247.465 66.5214C247.465 66.3838 247.671 66.1086 247.911 65.8679C248.151 65.6271 248.425 65.0768 248.528 64.664C248.63 64.2513 248.973 63.5633 249.247 63.185C249.659 62.6347 249.762 62.2219 249.59 61.4652C249.316 60.055 249.11 59.883 246.848 58.9887C245.751 58.576 244.483 57.9224 244.038 57.5441C243.147 56.7874 237.902 54.8612 236.737 54.8612C236.326 54.8612 235.503 54.6204 234.921 54.3109C234.338 54.0013 233.55 53.8293 233.241 53.8981C232.864 54.0013 232.35 53.8293 231.87 53.451C231.459 53.107 230.773 52.8319 230.328 52.8319C229.916 52.8319 229.437 52.7287 229.299 52.5911C229.162 52.4535 228.066 51.9032 226.9 51.4216C225.735 50.9057 223.85 50.0458 222.719 49.5299C221.588 48.9795 220.456 48.5668 220.148 48.5668C219.84 48.5668 219.36 48.3604 219.051 48.1196C218.743 47.8789 218.194 47.7069 217.852 47.7069C217.509 47.7069 216.583 47.3285 215.864 46.847C215.11 46.3655 214.39 45.9871 214.253 45.9871C214.116 45.9871 213.224 45.6088 212.265 45.1272C211.305 44.6457 210.243 44.2673 209.9 44.2673C209.557 44.2673 209.111 44.0953 208.94 43.889C208.632 43.5106 208.769 43.3386 212.916 39.4863C214.39 38.1105 214.595 37.9041 215.418 37.0098C216.823 35.462 218.948 33.5359 219.188 33.5359C219.325 33.5359 220.045 32.8823 220.799 32.0912C223.267 29.5459 227.483 25.6248 227.757 25.6248C227.894 25.6248 228.648 25.1777 229.437 24.6274C230.191 24.077 231.047 23.6299 231.287 23.6299C231.527 23.6299 232.179 23.2171 232.693 22.7356C233.207 22.254 235.469 20.947 237.765 19.8119C240.027 18.7113 242.324 17.4386 242.838 16.9571C243.352 16.51 243.969 16.1316 244.175 16.1316C244.38 16.1316 244.826 15.8564 245.169 15.5125C245.477 15.1685 246.094 14.859 246.54 14.8246C246.985 14.7902 248.391 14.171 249.659 13.4831C252.127 12.1417 253.977 11.385 255.965 10.9722C256.617 10.8347 257.405 10.5939 257.679 10.4563C259.427 9.56201 261.004 8.97729 261.621 8.97729C261.998 8.97729 262.82 8.73652 263.403 8.42696C263.986 8.11739 265.699 7.73904 267.208 7.53267C268.716 7.36069 270.395 7.01673 271.012 6.77596C271.595 6.53519 272.246 6.432 272.417 6.53519C272.931 6.84475 275.776 6.63838 277.353 6.19123C278.141 5.95046 279.512 5.77848 280.369 5.77848C282.186 5.77848 285.716 5.53771 288.355 5.19375C289.726 4.95298 290.892 4.95298 294.799 5.19375ZM98.9175 48.6012C98.1977 49.1515 97.478 49.5987 97.3409 49.5987C97.1695 49.5987 97.0667 49.7362 97.0667 49.8738C97.0667 50.0114 96.8953 50.149 96.6896 50.149C96.484 50.149 95.3872 50.7337 94.2561 51.456C93.125 52.1783 92.1311 52.7631 92.0282 52.7631C91.9254 52.7631 91.377 53.1414 90.7601 53.623C90.1774 54.1045 89.5262 54.4829 89.3205 54.4829C89.1149 54.4829 88.4294 54.758 87.7782 55.102C87.1269 55.4459 86.2015 55.8931 85.7559 56.1339C83.7337 57.1657 83.3567 57.1313 82.1228 55.9275C81.4716 55.3084 80.2719 54.5173 79.4151 54.1733C78.5582 53.8293 77.5642 53.2446 77.1872 52.8663C76.7759 52.4535 76.1932 52.2127 75.6791 52.2127C74.9936 52.2127 74.7194 52.0408 74.3424 51.2153C73.6226 49.7018 72.7657 49.6331 70.435 50.9057C69.3725 51.4904 68.07 52.3503 67.5902 52.8319C67.0761 53.279 66.5277 53.6918 66.3563 53.6918C66.1849 53.6918 65.4309 54.2765 64.6426 54.9988C62.6203 56.8906 62.4832 56.925 60.5981 56.409C59.707 56.1683 58.4388 55.8931 57.7876 55.8587C56.6222 55.7555 52.4749 54.2421 51.7552 53.6574C51.5495 53.4854 51.0697 53.4166 50.6926 53.5198C50.2128 53.6574 49.2531 53.3478 47.5394 52.5567C46.1684 51.9376 44.7974 51.4216 44.4546 51.4216C44.1119 51.4216 43.1179 51.9032 42.261 52.5223C41.4041 53.1414 40.2045 53.7262 39.6218 53.8293C39.0392 53.9325 38.1823 54.3453 37.7367 54.7236C37.2911 55.102 36.7427 55.4459 36.5714 55.4459C36.1258 55.4459 33.9665 56.8218 33.9665 57.1313C33.9665 57.2689 33.5209 57.5785 32.9725 57.8192C32.4241 58.0944 31.7729 58.6104 31.4987 59.0231C31.2245 59.4358 30.7789 59.7454 30.5047 59.7454C30.2305 59.7454 29.5793 60.1238 29.1337 60.5709C28.6539 61.0181 28.0026 61.4996 27.6599 61.6028C27.3171 61.706 25.9461 62.4283 24.6094 63.2194C23.2727 64.0105 21.8674 64.6296 21.4904 64.6296C21.1134 64.6296 20.3936 64.836 19.9137 65.0768C19.4339 65.3175 18.8512 65.4551 18.6113 65.3519C17.8572 65.0768 16.3491 65.7303 16.0064 66.5214C15.458 67.6908 15.6294 68.5851 16.5205 69.617C17.0004 70.1673 17.3774 70.6833 17.3774 70.752C17.3774 70.8208 18.0629 72.403 18.9198 74.1916C19.7766 75.9802 20.5307 77.872 20.6678 78.3535C20.8392 79.1102 21.9702 80.7956 23.1013 81.9995C23.2384 82.1714 23.5469 82.4466 23.7525 82.6874C23.9582 82.8937 25.8776 84.8543 28.0026 87.0556C31.8414 90.9768 31.8757 91.0455 30.9846 91.1143L30.0934 91.2175L30.8817 91.5959C31.3273 91.8022 31.67 92.1118 31.67 92.2838C31.67 92.8685 34.2407 95.0698 34.9604 95.0698C35.3375 95.0698 35.6802 95.173 35.6802 95.3106C35.6802 95.4482 36.0572 95.7234 36.5371 95.9297C37.0169 96.1361 37.394 96.3769 37.394 96.5145C37.394 96.7896 33.8979 97.2368 32.6297 97.1336C31.0188 96.996 29.8192 98.7502 30.4362 100.367C30.8475 101.502 32.0471 101.708 36.6056 101.502C40.9586 101.295 40.9586 101.295 43.5977 102.224C45.0716 102.706 46.4768 103.118 46.751 103.118C47.0252 103.118 47.4023 103.256 47.5736 103.462C47.8821 103.772 49.2188 103.978 53.7088 104.46C55.1827 104.632 55.3883 104.563 56.0053 103.91C56.5879 103.29 56.8621 103.222 58.3702 103.29C60.838 103.394 63.58 103.91 64.2998 104.391C65.1567 104.941 74.3424 105.457 76.3646 105.079C77.1529 104.941 78.4896 104.769 79.3465 104.701C80.2034 104.632 82.774 104.391 85.0704 104.116C87.3326 103.875 91.754 103.6 94.8388 103.566L100.46 103.497L101.317 102.671C102.105 101.915 102.276 101.88 103.031 102.155C103.682 102.396 104.162 102.396 105.121 102.087C105.807 101.88 108.137 101.639 110.331 101.536C115.986 101.295 121.299 100.676 122.224 100.195C122.499 100.057 122.91 99.5413 123.15 99.0942C123.39 98.6126 123.733 98.2343 123.87 98.2343C124.452 98.2343 124.761 96.7208 124.452 95.6202C123.904 93.7628 123.424 93.6252 117.529 93.6252C114.615 93.6252 114.478 93.5908 114.273 93.0061C113.759 91.2519 111.908 90.3232 108.857 90.2544C107.623 90.22 106.389 90.0825 106.081 89.9105C105.704 89.7041 105.224 89.7385 104.539 89.9449C103.99 90.1169 103.476 90.22 103.373 90.1169C103.305 90.0481 103.613 89.3945 104.127 88.741C104.607 88.0531 105.67 86.6085 106.424 85.5078C107.212 84.4072 108.377 82.8594 109.063 82.1026C110.434 80.5204 112.388 77.1841 112.422 76.3242C112.422 76.0146 112.627 75.4987 112.867 75.1891C113.107 74.8795 113.279 74.4668 113.279 74.2604C113.279 74.054 113.587 73.4005 113.964 72.8158C114.341 72.2311 114.753 71.2336 114.855 70.6145C114.958 69.9953 115.301 68.8947 115.609 68.1724C116.466 66.1774 117.837 62.1531 118.077 60.8117C118.214 60.1238 118.66 59.1951 119.14 58.6447C119.62 58.0944 120.168 57.0625 120.374 56.3402C120.716 55.1364 120.682 54.93 120.202 54.1045C119.414 52.7975 117.255 51.8344 115.164 51.8344C113.793 51.8344 111.051 51.1121 110.125 50.493C109.714 50.2178 108.686 49.9082 107.829 49.7706C104.093 49.2547 102.585 48.9107 101.899 48.3948C100.974 47.3973 100.426 47.4661 98.9175 48.6012ZM75.6105 57.5441C77.3928 58.404 78.5925 59.1607 79.1409 59.8142C79.5864 60.3645 80.1348 60.8117 80.3062 60.8117C80.5119 60.8117 81.1288 61.2244 81.6429 61.7404C82.1913 62.2563 83.1853 63.2194 83.9051 63.8385C84.5906 64.492 85.4817 65.4207 85.8245 65.9023C86.1672 66.3838 86.8527 66.8653 87.3326 66.9685C87.8124 67.0717 88.258 67.2781 88.3608 67.4157C88.6007 67.794 91 68.9979 92.2682 69.3418C93.6049 69.7202 94.9759 69.3762 96.0384 68.3787C96.4497 68.0004 96.9296 67.6564 97.0667 67.6564C97.2038 67.6564 98.5405 67.1405 100.014 66.5214C101.488 65.9022 102.928 65.3863 103.236 65.3863C103.545 65.3863 104.024 65.1455 104.299 64.836C104.573 64.5264 105.087 64.2169 105.464 64.1137C105.841 64.0105 106.904 63.4258 107.863 62.8066C108.823 62.1875 109.748 61.6716 109.92 61.6716C110.091 61.6716 111.085 61.2244 112.113 60.6397C113.793 59.6766 113.93 59.6766 113.587 60.2613C113.382 60.6397 113.142 61.3276 113.005 61.8092C112.696 63.0818 111.873 65.3519 111.119 67.0029C110.742 67.794 110.468 68.5851 110.468 68.7571C110.468 69.0667 108.549 71.6807 108 72.1279C107.795 72.2999 107.452 72.8846 107.212 73.4693C106.972 74.054 106.629 74.6388 106.424 74.7764C105.601 75.2923 104.196 78.0783 104.196 79.179C104.196 80.0045 104.059 80.3829 103.613 80.5892C103.305 80.7612 102.962 81.2428 102.859 81.6899C102.516 83.2721 102.414 83.4785 102.002 83.4785C101.762 83.4785 101.351 83.96 101.077 84.5103C100.528 85.6798 98.3006 88.1219 94.6331 91.6303C93.1936 93.0061 92.4738 93.3501 89.8346 93.9004C89.4233 93.9692 88.635 94.3475 88.0866 94.7259C87.5382 95.1042 86.51 95.4826 85.8245 95.5514C85.139 95.6202 84.1793 95.8609 83.6994 96.0673C83.2196 96.2737 82.4655 96.4113 82.0542 96.3769C81.6429 96.3425 80.9574 96.5145 80.5804 96.7552C80.2034 96.996 79.5522 97.2024 79.1751 97.2024C78.7981 97.2024 77.6328 97.4775 76.6731 97.8215C74.5137 98.5438 72.2859 98.8878 67.7273 99.0942C64.5397 99.2661 64.1627 99.1973 63.0659 98.647C62.0034 98.0967 61.5921 98.0623 59.467 98.2343L57.1021 98.4406L56.2795 97.5463C55.6625 96.8584 55.0113 96.5489 53.6403 96.2393C50.864 95.6202 48.9446 95.0011 48.1906 94.4163C47.8136 94.1412 46.5454 93.3845 45.38 92.7997C44.2147 92.215 43.1179 91.5271 42.9465 91.2863C42.7751 91.0799 42.1239 90.7704 41.507 90.6328C40.7529 90.4608 39.8618 89.9105 38.9363 89.085C38.0109 88.2251 37.0512 87.6404 36.023 87.3308C35.2004 87.09 34.0693 86.4709 33.5209 85.955C31.0874 83.7192 29.4765 82.0682 28.8252 81.1396C28.4482 80.5892 27.4542 79.4886 26.6659 78.6975C25.5348 77.5968 24.9179 76.5649 23.8896 74.226C23.1699 72.575 22.5529 71.096 22.5529 70.9584C22.5529 70.8208 23.0328 71.268 23.6497 71.9215L24.7465 73.1254L26.8716 73.0222C29.6136 72.8846 31.7729 73.2629 33.6237 74.1228C34.4463 74.5012 35.4403 74.8451 35.8516 74.8451C36.2629 74.8451 36.8113 74.9483 37.0855 75.1203C37.5996 75.3955 41.3013 76.2898 41.9525 76.2898C42.1582 76.2898 42.7409 76.6337 43.2207 77.0121C43.9405 77.6312 44.2832 77.7344 45.2772 77.5624C47.5394 77.2185 48.6019 76.4273 48.6019 74.9827C48.6019 74.7764 48.9103 74.398 49.3216 74.1228C49.9729 73.6757 50.9668 72.8502 52.3378 71.5775C52.6463 71.3024 52.9548 71.0616 53.0576 71.0616C53.2633 71.0616 53.6403 70.7177 56.3137 68.1036C57.342 67.1061 58.713 65.9366 59.3642 65.4895C60.0154 65.0424 60.7695 64.3888 60.9751 64.0449C61.455 63.3226 65.6023 60.055 66.6648 59.5734C67.0075 59.4015 67.5217 58.8855 67.7959 58.4384C68.0701 57.9568 68.4471 57.5785 68.6527 57.5785C68.8584 57.5785 69.4068 57.1657 69.8866 56.6842C70.6407 55.8931 70.8463 55.8243 71.8746 55.9963C72.3887 56.1683 74.1367 56.8218 75.6105 57.5441ZM96.0384 78.9038C95.7299 79.0414 94.8731 79.6262 94.1876 80.1765C93.4678 80.7268 92.4395 81.4835 91.8911 81.8963C91.3427 82.2746 90.383 82.9969 89.7661 83.4441C89.1491 83.9256 88.0866 84.5447 87.4011 84.8887C86.7156 85.1983 85.7216 85.8174 85.2075 86.2645C84.4192 86.9181 83.9051 87.09 82.4313 87.1588C79.1409 87.2964 75.6105 89.1882 74.5823 91.3551C74.171 92.1806 74.2053 92.3526 74.6166 93.1781C75.3706 94.6227 76.1247 94.8291 78.0441 94.1068C78.9352 93.7628 79.8606 93.4876 80.1006 93.4876C80.6832 93.4876 83.5281 92.1462 83.768 91.7679C84.0079 91.3551 85.0704 91.4239 86.0301 91.9054C87.2298 92.5246 88.3265 92.4214 89.2862 91.6303C89.7661 91.2519 90.2459 90.908 90.383 90.908C90.5201 90.908 91.0343 90.5296 91.4798 90.0481C91.9254 89.5665 93.0222 88.7754 93.8791 88.2939C95.5586 87.3308 95.6614 87.262 97.5465 85.439C98.8147 84.2352 99.9115 82.2402 99.9115 81.1396C99.9115 80.2109 99.4316 79.4886 98.5062 79.007C97.5465 78.5255 96.8953 78.4911 96.0384 78.9038ZM342.441 88.6378C342.098 88.7754 341.687 89.1538 341.516 89.4633C341.036 90.3576 340.179 90.4952 339.459 89.8073C339.116 89.4977 338.602 89.2226 338.328 89.2226C337.711 89.2226 336.374 89.8073 336.374 90.0825C336.374 90.1856 335.997 90.7704 335.518 91.3895C335.038 92.0086 334.318 92.9717 333.872 93.5564C332.878 94.8635 331.816 95.0699 332.638 93.7972C332.947 93.3157 332.604 92.559 331.713 91.5615C331.027 90.8048 329.622 90.7016 328.423 91.3207C327.6 91.7335 326.16 93.4189 325.509 94.6571C325.304 95.0355 324.892 95.6202 324.584 95.9641C322.459 98.1999 320.848 99.7133 319.511 100.711C318.654 101.33 317.249 102.568 316.392 103.462C315.501 104.357 314.61 105.079 314.37 105.113C314.13 105.148 313.753 105.561 313.513 106.076C313.273 106.558 312.69 107.143 312.245 107.384C310.257 108.347 304.533 113.644 304.259 114.779C303.985 115.914 304.567 117.014 305.664 117.496C306.727 117.943 306.624 117.977 310.394 116.498C312.382 115.707 313.547 115.363 313.547 115.535C313.547 115.604 313.033 115.879 312.416 116.12C311.799 116.361 311.217 116.774 311.148 116.98C311.045 117.221 310.84 117.324 310.668 117.221C310.086 116.842 309.023 117.393 307.515 118.803C306.589 119.697 305.733 120.248 305.321 120.248C304.944 120.248 304.362 120.385 304.019 120.591C303.676 120.763 302.476 121.073 301.311 121.279C298.878 121.692 297.918 122.242 297.644 123.309C297.267 124.857 299.255 126.852 301.208 126.852C303.265 126.852 307.446 125.888 308.646 125.166C308.886 125.029 309.708 124.581 310.497 124.203C313.205 122.862 316.289 121.245 316.666 120.935C317.318 120.385 320.231 118.906 321.019 118.734C321.43 118.631 322.185 118.115 322.733 117.565C323.281 117.014 324.241 116.326 324.892 115.982C326.092 115.363 326.435 115.088 329.451 112.405C331.679 110.41 334.901 107.04 334.901 106.661C334.901 106.214 335.723 105.32 336.957 104.391C337.54 103.944 338.637 102.671 339.356 101.536C340.076 100.401 340.967 99.2317 341.344 98.9566C341.721 98.6814 342.338 97.7527 342.75 96.9616C343.161 96.1361 343.812 94.9667 344.189 94.3131C345.32 92.4214 345.8 91.2175 345.629 90.564C345.286 88.9818 343.743 88.0875 342.441 88.6378ZM242.838 102.878C242.598 103.462 242.29 104.082 242.153 104.254C242.015 104.425 241.707 105.285 241.433 106.145C241.159 107.005 240.61 108.381 240.199 109.172C239.479 110.617 238.554 113.059 238.142 114.607C238.005 115.088 237.697 115.879 237.457 116.395C237.183 116.911 236.977 117.461 236.977 117.599C236.977 117.771 236.6 118.528 236.154 119.25C235.709 120.007 235.229 120.935 235.126 121.348C234.886 122.174 233.995 124.272 233.344 125.441C233.07 125.957 232.967 126.576 233.07 127.161C233.378 128.812 233.652 128.606 230.088 129.087C228.922 129.259 227.414 129.638 226.763 129.947C226.112 130.257 225.392 130.429 225.186 130.36C224.947 130.257 223.918 130.566 222.924 131.048C221.348 131.736 220.902 132.114 220.079 133.421C219.257 134.694 219.085 135.244 219.085 136.62C219.085 137.549 218.983 138.34 218.914 138.443C218.606 138.752 218.983 142.433 219.497 144.153C219.942 145.7 220.285 146.182 222.753 148.658C224.261 150.172 226.009 151.685 226.592 152.029C227.209 152.339 228.271 153.267 228.957 154.059C229.676 154.85 230.568 155.882 230.945 156.329C231.801 157.292 232.967 159.046 233.481 160.215C233.755 160.8 233.892 162.52 233.927 165.753C233.995 169.949 233.927 170.5 233.447 171.119C233.138 171.497 232.898 171.91 232.898 172.048C232.898 172.426 231.664 173.595 231.253 173.595C231.047 173.595 230.568 173.871 230.191 174.249C228.751 175.659 228.374 175.865 226.18 176.485C224.912 176.829 223.438 177.344 222.89 177.62C222.342 177.929 221.553 178.204 221.176 178.308C220.799 178.376 219.771 178.652 218.88 178.927C218.023 179.202 216.721 179.546 216.035 179.683C215.315 179.821 214.081 180.165 213.293 180.371C212.505 180.612 210.894 180.853 209.763 180.922C208.597 180.99 207.535 181.162 207.363 181.266C206.815 181.61 202.291 182.263 199.892 182.332C191.7 182.641 187.107 182.71 178.744 182.71C173.568 182.71 168.564 182.71 167.605 182.676C166.645 182.641 164.863 182.676 163.594 182.71C156.911 182.882 139.945 182.297 139.191 181.885C138.882 181.713 138.197 181.575 137.682 181.61C136.346 181.644 132.233 180.853 127.674 179.718C125.515 179.167 123.493 178.755 123.253 178.789C122.979 178.823 122.499 178.72 122.156 178.514C121.813 178.308 121.162 178.204 120.716 178.204C120.271 178.239 119.654 178.101 119.345 177.929C119.003 177.757 117.872 177.448 116.775 177.276C115.678 177.104 114.444 176.76 114.033 176.553C113.519 176.313 112.867 176.209 112.148 176.347C111.394 176.485 110.742 176.381 110.16 176.072C109.611 175.797 108.96 175.693 108.549 175.797C108.172 175.9 106.766 175.762 105.464 175.521C104.162 175.281 102.928 175.074 102.688 175.074C102.276 175.074 100.288 174.627 95.4215 173.458C94.3247 173.183 92.7137 172.942 91.8226 172.873C90.9314 172.804 89.9375 172.632 89.629 172.46C89.2862 172.288 88.1552 172.082 87.0927 172.013C86.0301 171.944 84.762 171.807 84.3164 171.669C83.8365 171.532 81.7115 171.463 79.6207 171.497C77.4957 171.532 75.1992 171.566 74.4795 171.566C73.7597 171.566 72.3201 171.566 71.2233 171.566C70.1608 171.566 68.7898 171.704 68.2414 171.841C67.0418 172.151 65.1567 172.22 63.4429 171.979C62.6889 171.876 61.1808 172.048 59.3299 172.46C56.8964 172.976 55.594 173.079 51.6866 173.079C49.0817 173.045 46.1341 172.976 45.1058 172.907C44.0776 172.839 42.3296 172.701 41.2328 172.632C40.136 172.563 38.0795 172.288 36.6742 172.048C35.2689 171.772 33.3495 171.532 32.3898 171.463C31.4301 171.394 30.2991 171.153 29.8192 170.912C29.3394 170.672 28.6196 170.465 28.1397 170.465C27.6942 170.465 27.0087 170.19 26.5974 169.881C26.1861 169.571 25.6377 169.296 25.3292 169.296C24.8493 169.296 22.2102 168.195 21.1134 167.542C19.8452 166.785 17.5145 165.856 16.8975 165.856C16.5205 165.856 15.7665 165.616 15.2866 165.306C14.8068 164.996 14.087 164.687 13.71 164.549C12.9902 164.308 10.8309 162.348 10.8309 161.866C10.8309 161.729 9.87118 160.628 8.70583 159.424C7.54048 158.22 6.58078 157.085 6.58078 156.81C6.58078 156.569 6.40941 156.191 6.23803 155.985C5.79246 155.503 5.31261 154.506 4.86703 152.958C4.55856 151.96 4.55856 151.444 4.86703 150.137C5.07268 149.278 5.48398 148.28 5.75818 147.936C6.03238 147.592 6.27231 147.214 6.27231 147.111C6.27231 146.973 6.61506 146.457 7.06063 145.941C7.88323 144.944 8.29453 144.359 9.0143 142.983C9.25423 142.502 9.93973 141.676 10.5224 141.126C11.1051 140.575 11.7563 139.819 11.9962 139.44C12.6132 138.477 14.7039 137.101 15.5608 137.101C15.9721 137.101 16.6233 136.792 17.0346 136.379C17.4117 136.001 17.8572 135.657 17.9943 135.657C18.1314 135.657 18.6798 135.347 19.2282 134.969C19.7766 134.591 20.6678 134.212 21.2505 134.109C21.7989 134.006 22.4158 133.731 22.6215 133.49C22.8271 133.249 23.2041 133.077 23.4783 133.077C23.7525 133.077 24.061 132.974 24.1638 132.836C24.438 132.355 28.5168 130.497 29.2365 130.497C29.6478 130.497 30.4362 130.291 31.0188 130.05C31.6015 129.81 32.664 129.569 33.4181 129.5C34.1721 129.431 35.5431 129.259 36.5028 129.087C38.3879 128.778 39.9303 128.606 43.1864 128.331C44.3518 128.227 45.6542 128.055 46.0313 127.918C46.8881 127.608 48.8761 127.333 50.6241 127.23C51.3439 127.195 52.0979 127.058 52.3378 126.886C52.5778 126.748 53.0919 126.645 53.5032 126.714C53.9145 126.748 54.8056 126.645 55.4911 126.439C56.1766 126.232 57.5819 126.06 58.5759 126.026C60.3239 125.957 62.3804 125.785 64.9853 125.476C66.5277 125.304 66.1507 125.304 71.1205 125.441C75.3706 125.579 76.1247 125.682 79.8264 126.886C80.6147 127.127 81.6429 127.471 82.1228 127.608C83.151 127.918 87.4354 127.746 88.8407 127.333C89.3891 127.161 90.3488 127.058 90.9657 127.023C91.5827 127.023 92.3024 126.92 92.5081 126.783C92.748 126.645 93.2964 126.645 93.8791 126.817C94.5989 127.023 95.0787 126.989 95.7985 126.645C96.4497 126.336 97.9578 126.164 100.871 126.06C103.133 125.992 105.841 125.854 106.869 125.751C107.898 125.648 110.331 125.544 112.285 125.51C114.238 125.441 116.638 125.338 117.563 125.235C118.489 125.132 119.757 125.063 120.374 125.063C120.991 125.063 121.847 124.891 122.293 124.65C122.739 124.409 123.39 124.237 123.698 124.237C124.007 124.237 124.898 123.928 125.652 123.55C126.406 123.171 127.571 122.758 128.291 122.655C129.011 122.552 129.834 122.311 130.142 122.105C130.45 121.899 131.547 121.451 132.541 121.107C134.735 120.351 135.9 119.766 136.209 119.284C136.346 119.078 136.791 118.7 137.203 118.425C138.299 117.702 139.156 115.879 139.122 114.263C139.088 112.199 139.533 110.548 140.287 109.929C140.664 109.619 141.11 109.344 141.316 109.344C141.521 109.344 142.07 108.966 142.618 108.519C143.132 108.071 144.023 107.556 144.606 107.349C145.189 107.143 145.737 106.868 145.84 106.73C145.943 106.592 146.285 106.455 146.628 106.455C147.314 106.455 149.644 105.698 150.124 105.32C150.296 105.182 151.153 105.01 152.078 104.907C153.003 104.804 154.1 104.529 154.546 104.288C155.06 104.013 156.671 103.806 159.31 103.703C161.504 103.6 163.492 103.462 163.766 103.394C164.04 103.325 164.451 103.394 164.691 103.566C164.965 103.806 166.336 103.875 169.044 103.841C173.02 103.772 175.042 103.944 175.968 104.425C176.242 104.563 178.298 104.701 180.56 104.701C182.823 104.701 186.353 104.769 188.375 104.838C190.432 104.907 194.202 105.045 196.807 105.148C199.412 105.251 202.085 105.354 202.805 105.389C203.525 105.423 204.382 105.354 204.759 105.217C205.136 105.079 206.369 104.907 207.466 104.838C210.962 104.563 226.626 104.494 226.934 104.735C227.311 105.01 229.676 104.873 231.287 104.46C231.973 104.288 232.624 104.219 232.795 104.288C232.933 104.391 233.412 104.254 233.858 104.047C234.304 103.806 235.435 103.566 236.36 103.462C237.285 103.359 238.588 103.118 239.205 102.878C239.822 102.637 240.679 102.431 241.056 102.431C241.433 102.431 241.947 102.293 242.187 102.121C243.044 101.502 243.284 101.777 242.838 102.878ZM173.877 119.216C173.157 119.456 171.683 119.972 170.552 120.351C169.078 120.867 168.153 121.383 167.262 122.277C166.576 122.93 165.617 123.79 165.102 124.134C164.588 124.478 163.971 125.201 163.697 125.682C162.977 127.092 161.366 128.434 159.173 129.466C156.362 130.773 155.266 130.979 148.753 131.185C141.83 131.426 139.979 131.529 139.602 131.77C139.396 131.908 138.334 132.148 137.237 132.355C132.987 133.112 127.708 134.625 126.372 135.45C126.063 135.657 125.206 136.035 124.487 136.31C123.527 136.689 122.636 137.411 121.093 139.062C118.523 141.882 118.454 141.951 117.563 144.221C116.912 145.838 116.672 147.317 116.843 148.796C116.878 149.037 116.809 149.759 116.672 150.378C116.501 151.41 116.569 151.685 117.426 152.786C118.66 154.403 120.271 155.985 121.676 156.948C122.807 157.739 126.269 158.702 128.942 158.977C129.731 159.046 130.553 159.252 130.793 159.355C131.033 159.459 132.404 159.596 133.844 159.596C135.283 159.596 136.62 159.699 136.826 159.803C137.031 159.94 139.053 160.078 141.35 160.112C143.646 160.181 147.691 160.25 150.364 160.319C156.979 160.491 160.989 161.041 164.485 162.314C165.617 162.726 167.022 163.036 167.673 163.036C168.29 163.036 169.044 163.173 169.353 163.311C169.627 163.483 172.677 163.689 176.105 163.793C183.542 164.033 183.474 164.033 186.182 163.621C187.347 163.449 189.095 163.208 190.02 163.07C190.946 162.933 192.831 162.451 194.168 161.97C195.504 161.488 197.355 160.8 198.281 160.456C200.44 159.665 201.708 158.668 203.285 156.466C203.97 155.503 204.656 154.712 204.793 154.712C205.238 154.712 205.787 152.855 206.13 150.413C206.507 147.627 206.232 146.32 204.759 143.533C203.285 140.679 203.045 140.231 202.736 139.234C202.565 138.615 202.496 137.239 202.599 135.726C202.771 133.249 202.771 133.215 203.936 132.148C204.587 131.564 205.376 130.876 205.684 130.635C207.432 129.397 207.603 127.402 206.198 124.685C204.964 122.277 202.668 121.314 197.527 121.004C196.498 120.935 194.853 120.729 193.859 120.557C192.865 120.385 191.563 120.282 190.946 120.385C190.329 120.488 189.746 120.454 189.609 120.316C189.026 119.8 185.188 119.078 182.823 119.009C181.383 118.975 179.052 118.872 177.647 118.769C175.762 118.837 174.837 118.872 173.877 119.216ZM278.278 122.414C278.176 122.518 277.284 122.586 276.325 122.518C273.137 122.38 269.881 124.065 269.367 126.129C269.058 127.436 271.012 129.19 272.691 129.122C273.103 129.087 275.811 129.053 278.724 129.018C284.551 128.915 285.373 128.709 285.716 127.127C285.819 126.68 285.956 126.164 286.024 125.923C286.264 125.201 285.579 123.722 284.791 123.24C284.311 122.965 283.043 122.724 281.5 122.621C280.129 122.518 278.895 122.38 278.758 122.311C278.553 122.277 278.381 122.277 278.278 122.414ZM18.577 157.257C18.2343 157.636 17.8915 158.324 17.7887 158.805C17.3774 160.8 20.2222 163.449 23.9582 164.618C25.1235 164.996 26.6316 165.444 27.2486 165.684C27.8655 165.891 28.7224 166.063 29.1337 166.063C29.545 166.063 30.2305 166.269 30.7104 166.475C31.1559 166.716 32.0128 166.888 32.5955 166.923C33.1781 166.923 34.1036 167.095 34.5834 167.301C35.7488 167.782 43.4264 167.645 44.4546 167.129C45.8942 166.407 46.2369 164.377 45.0373 163.414C44.4203 162.898 43.7006 162.829 39.2105 162.761C37.8053 162.726 35.9201 162.554 35.0633 162.382C34.2064 162.176 33.2467 162.038 32.9382 162.038C32.6297 162.038 31.7386 161.866 30.9503 161.66C30.162 161.419 28.2768 160.972 26.7345 160.628C25.1921 160.284 23.9582 159.871 23.9582 159.734C23.9582 159.596 23.5469 159.39 23.0328 159.252C22.3473 159.08 22.0388 158.805 21.8674 158.117C21.4218 156.638 19.6395 156.157 18.577 157.257ZM54.5314 163.758C54.1887 164.102 53.9145 164.618 53.9145 164.928C53.9145 165.237 53.8459 165.65 53.7431 165.891C53.4004 166.785 54.6 167.645 56.5194 167.886C63.0659 168.78 66.1507 167.817 65.4652 165.134C65.3623 164.687 64.8825 164.274 64.197 163.93C63.0316 163.38 62.7574 163.38 59.3642 163.483C58.1989 163.517 56.7593 163.449 56.1766 163.345C55.354 163.173 55.0113 163.277 54.5314 163.758ZM223.336 165.65C223.027 166.063 222.479 166.372 222.102 166.372C221.725 166.372 220.217 166.785 218.708 167.267C214.116 168.78 210.928 169.502 209.66 169.33C208.186 169.124 207.295 169.915 207.295 171.36C207.295 173.63 208.734 175.006 210.517 174.421C211.031 174.249 212.985 173.939 214.87 173.699C218.64 173.217 221.313 172.529 223.747 171.428C224.638 171.016 225.495 170.706 225.632 170.706C225.803 170.706 226.386 170.225 226.934 169.674C227.723 168.849 227.928 168.402 227.963 167.473C227.997 166.407 227.894 166.235 226.832 165.65C225.289 164.721 224.055 164.721 223.336 165.65Z" fill="black"/>
</svg>
