<svg width="1440" height="265" viewBox="0 0 1440 265" fill="none" xmlns="http://www.w3.org/2000/svg">
<g clip-path="url(#clip0_132_63)">
<path d="M361.61 210.25C361.466 206.114 359.839 204.643 354.21 204.643C333.198 204.797 337.784 180.879 327.58 180.879C312.494 180.879 302.72 211.884 302.72 224.435C302.72 240.968 311.153 251.896 323.138 251.896C343.413 251.896 361.907 227.09 361.61 210.26M0 194.452C0 213.497 13.6121 226.487 30.622 226.487C47.6319 226.487 61.1007 212.313 59.6167 193.42C57.9894 172.311 68.7869 159.464 79.738 159.464C88.7649 159.464 92.7564 166.552 92.7564 174.527C92.7564 230.48 26.9171 242.878 26.9171 285.841C26.9171 300.455 36.9777 311.382 50.4465 311.382C68.7971 311.382 80.3316 297.646 94.6805 253.805C102.674 229.592 122.345 194.452 141.432 194.452C144.83 194.452 147.645 198.588 147.645 203.306C147.645 234.157 104.291 263.395 104.291 289.374C104.291 303.396 114.495 311.372 126.93 311.372C152.087 311.372 164.071 286.423 168.656 254.826C172.945 225.742 194.847 194.441 208.756 194.441C213.044 194.441 216.155 198.72 216.155 204.48C216.155 239.62 176.506 268.552 176.506 316.825C176.506 349.3 202.84 384.737 251.813 384.737C274.001 384.737 290.725 374.555 290.725 355.356C290.725 334.829 269.273 326.128 253.297 320.665C234.066 314.17 223.708 298.668 223.708 277.406C223.708 244.481 267.799 215.846 267.799 168.604C267.799 153.102 259.806 143.206 248.568 143.206C233.329 143.206 215.572 157.524 202.994 171.403C199.299 175.385 198.112 174.803 198.112 169.34C197.968 156.35 192.042 143.206 180.211 143.206C158.903 143.206 140.706 156.789 128.424 170.075C125.169 173.619 123.982 173.026 123.685 168.155C122.201 146.597 106.675 128.889 79.738 128.889C38.912 128.909 0 161.527 0 194.452ZM256.705 258.38C256.705 219.849 296.651 143.227 351.099 143.227C374.475 143.227 378.323 167.001 392.529 167.001C400.225 167.001 406.437 159.178 406.437 151.938C406.437 140.276 392.529 133.341 392.529 114.439C392.529 95.5357 405.844 78.1238 425.822 78.1238C443.876 78.1238 452.903 92.5945 452.903 107.055C452.903 124.028 442.402 133.035 442.402 140.715C442.402 146.321 445.953 148.833 450.098 148.833C458.092 148.833 466.228 142.778 475.695 142.778C485.162 142.778 492.122 148.68 492.122 159.168C492.122 186.925 441.962 214.825 441.962 239.631C441.962 246.575 445.953 251.885 452.319 251.885C463.27 251.885 484.865 215.121 502.029 190.612C521.556 162.855 544.789 143.227 575.268 143.227C585.482 143.227 594.212 147.506 600.128 153.858C603.526 157.544 605.9 157.698 609.298 154.154C615.961 147.363 624.691 143.227 634.751 143.227C645.999 143.227 652.212 150.457 652.212 158.586C652.212 178.806 626.175 184.127 605.757 240.519C598.511 260.3 590.517 302.375 576.015 340.466C574.244 345.195 575.861 348.442 580.6 349.913C621.436 362.607 663.603 375.893 699.26 375.893C772.202 375.893 804.165 327.762 847.959 327.762C870.741 327.762 882.583 341.049 882.583 358.031C882.583 388.597 839.823 440.853 755.039 440.853C682.537 440.853 620.546 405.416 564.767 380.172C560.622 378.252 557.367 379.283 554.85 383.276C521.71 433.469 469.032 459.01 430.714 459.01C388.844 459.01 363.094 439.229 363.094 405.416C363.094 371.604 402.006 327.466 478.499 327.466C494.629 327.466 512.826 330.867 532.354 335.881C536.642 337.066 539.897 335.728 541.678 331.602C547.153 319.94 551.882 307.093 556.323 293.214C558.391 286.566 555.883 285.239 550.991 290.263C538.116 302.814 522.733 311.372 509.265 311.372C487.066 311.372 478.786 292.918 479.226 274.168C479.38 268.266 477.599 267.52 473.904 272.106C457.181 292.04 434.992 311.372 413.54 311.372C396.08 311.372 386.316 298.678 386.316 281.695C386.316 238.589 434.398 217.623 434.398 184.842C434.398 178.786 431.441 174.068 425.668 174.068C414.124 174.068 392.078 194.595 389.274 214.958C382.028 267.959 336.75 311.361 302.423 311.361C272.241 311.361 256.705 289.66 256.705 258.36M429.516 382.367C429.516 391.374 437.213 399.197 456.3 399.197C481.897 399.197 501.722 388.719 517.411 370.705C521.106 366.426 519.776 362.29 514.454 360.666C501.578 357.123 489 354.907 476.575 354.907C446.69 354.907 429.527 369.816 429.527 382.367M521.556 236.056C521.556 244.471 526.438 251.855 535.465 251.855C560.325 251.855 580.293 223.209 580.293 201.069C580.293 190.581 574.971 183.208 566.538 183.208C542.271 183.208 521.556 218.787 521.556 236.056ZM617.578 268.245C617.578 210.076 681.646 143.196 725.44 143.196C740.833 143.196 750.147 154.562 750.147 167.552C750.147 203.867 717.447 229.265 687.409 229.265C683.857 229.265 680.459 228.826 677.051 228.081C671.576 226.753 667.134 229.704 669.355 235.76C672.763 245.064 680.602 251.855 695.095 251.855C723.056 251.855 754.578 229.714 760.34 210.219C765.079 195.156 764.189 183.79 764.189 176.121C764.189 160.618 779.571 143.196 801.177 143.196C814.195 143.196 821.891 148.364 821.891 160.761C821.891 163.417 821.451 166.521 820.704 169.769C819.671 174.497 822.035 174.201 826.62 169.472C841.859 153.674 857.242 143.196 876.923 143.196C889.205 143.196 895.56 151.907 895.56 162.538C895.56 188.968 856.208 214.059 853.24 238.569C852.35 245.656 857.385 251.855 865.818 251.855C880.618 251.855 896.451 236.209 901.773 225.721C909.766 210.076 911.24 193.093 911.24 176.121C911.24 160.618 926.336 143.196 948.228 143.196C963.17 143.196 968.943 152.643 968.943 161.507C968.943 164.315 968.646 167.267 968.206 170.075C967.469 174.354 969.833 173.322 974.275 168.308C987.447 153.398 1003.27 143.206 1015.55 143.206C1029.76 143.206 1034.34 156.053 1034.78 168.451C1034.94 174.058 1036.85 175.099 1040.99 171.106C1054.31 158.259 1075.62 143.206 1091.45 143.206C1101.81 143.206 1108.17 150.437 1108.17 162.845C1108.17 198.424 1076.51 217.613 1076.51 239.61C1076.51 246.554 1079.91 251.865 1085.83 251.865C1096.78 251.865 1106.25 229.725 1116.9 209.494C1137.47 172.73 1172.54 143.206 1201.39 143.206C1216.78 143.206 1226.1 154.573 1226.1 167.563C1226.1 203.877 1193.4 229.275 1163.36 229.275C1159.81 229.275 1156.4 228.836 1153 228.091C1147.53 226.763 1143.08 229.714 1145.31 235.77C1148.7 245.074 1156.55 251.865 1171.05 251.865C1217.5 251.865 1262.04 189.856 1262.04 143.206C1262.04 121.209 1242.66 102.603 1203.9 102.603C1130.52 102.603 1073.25 122.241 1036.71 122.241C989.064 122.241 970.416 102.306 970.416 90.644C970.416 60.9672 1010.52 40.4507 1080.5 40.4507C1160.39 40.4507 1218.39 87.1003 1260.27 87.1003C1288.39 87.1003 1295.34 51.3779 1304.96 33.0673C1314.87 14.1644 1336.32 0 1353.93 0C1365.47 0 1374.05 8.71105 1374.05 21.9972C1374.05 50.9285 1341.21 68.6468 1341.21 86.3651C1341.21 91.6754 1345.49 96.8428 1354.22 96.8428C1371.83 96.8428 1426.43 72.1904 1461.64 72.1904C1494.63 72.1904 1513.72 82.6682 1513.72 99.6512C1513.72 118.84 1492.71 130.656 1452.47 130.656C1418.73 130.656 1385.89 118.84 1360.44 118.84C1308.65 118.84 1268.85 194.431 1268.85 228.091C1268.85 242.265 1272.84 251.865 1280.54 251.865C1290 251.865 1300.22 237.394 1312.34 214.958C1329.51 182.922 1365.61 143.206 1400.38 143.206C1415.78 143.206 1425.09 154.573 1425.09 167.563C1425.09 203.877 1392.39 229.275 1362.35 229.275C1358.8 229.275 1355.4 228.836 1351.99 228.091C1346.52 226.763 1342.08 229.714 1344.3 235.77C1347.71 245.074 1355.55 251.865 1370.04 251.865C1391.94 251.865 1413.53 231.052 1424.49 217.47C1436.33 202.856 1445.34 212.303 1437.06 227.366C1416.94 264.273 1376.7 311.372 1336.01 311.372C1314.4 311.372 1301.68 299.709 1299.02 277.569C1298.28 271.963 1296.8 271.513 1293.84 276.088C1283.64 292.326 1265.29 311.372 1236.43 311.372C1217.8 311.372 1205.96 297.932 1203.14 281.256C1202.25 275.496 1199.59 274.322 1195.3 278.447C1175.62 297.197 1153.73 311.372 1137.01 311.372C1121.33 311.372 1108.3 300.598 1103.87 286.127C1102.24 280.817 1100.17 280.071 1096.62 284.35C1083.3 299.995 1068.06 311.372 1053.86 311.372C1036.4 311.372 1026.93 298.525 1026.93 281.552C1026.93 244.206 1059.19 222.055 1059.19 201.09C1059.19 197.689 1056.83 194.441 1052.83 194.441C1038.77 194.441 1014.65 221.463 1008.44 248.474C1000.74 281.695 992.165 311.361 968.932 311.361C956.057 311.361 946.59 303.386 946.59 288.629C946.59 263.384 985.799 234.147 985.799 203.295C985.799 198.567 982.688 194.441 978.103 194.441C960.499 194.441 933.418 230.909 933.418 264.416C933.418 295.267 916.992 311.361 897.617 311.361C883.115 311.361 876.903 301.762 876.166 290.1C875.869 284.779 874.538 284.044 870.69 287.883C857.815 301.17 841.982 311.361 825.566 311.361C809.149 311.361 797.605 296.748 797.605 282.716C797.605 244.921 838.144 223.659 838.144 200.334C838.144 196.494 836.077 194.431 833.856 194.431C819.21 194.431 782.662 230.164 782.662 264.406C782.662 298.647 763.871 311.351 744.784 311.351C725.696 311.351 720.968 294.378 726.883 277.253C728.664 272.085 728.071 271.493 724.222 275.333C702.914 295.553 678.208 311.351 659.57 311.351C635.161 311.351 617.547 294.961 617.547 268.245M679.098 204.613C683.54 206.237 688.268 206.972 692.27 206.972C704.552 206.972 714.909 200.477 714.909 187.63C714.909 181.87 711.061 176.999 704.111 176.999C692.864 176.999 682.956 184.525 676.15 194.717C673.489 198.853 674.523 202.836 679.108 204.613M1155.09 204.613C1159.53 206.237 1164.26 206.972 1168.26 206.972C1180.54 206.972 1190.9 200.477 1190.9 187.63C1190.9 181.87 1187.05 176.999 1180.1 176.999C1168.86 176.999 1158.95 184.525 1152.14 194.717C1149.48 198.853 1150.51 202.836 1155.1 204.613M1354.1 204.613C1358.54 206.237 1363.27 206.972 1367.27 206.972C1379.56 206.972 1389.91 200.477 1389.91 187.63C1389.91 181.87 1386.06 176.999 1379.12 176.999C1367.87 176.999 1357.96 184.525 1351.15 194.717C1348.49 198.853 1349.53 202.836 1354.11 204.613" fill="#B96546"/>
</g>
<defs>
<clipPath id="clip0_132_63">
<rect width="1440" height="265" fill="white"/>
</clipPath>
</defs>
</svg>
